<svg width="1920" height="799" viewBox="0 0 1920 799" fill="none" xmlns="http://www.w3.org/2000/svg">
<path d="M-117.903 73.3615C-44.4609 112.789 20.6068 167.993 73.2429 235.529C150.819 336.305 146.6 398.044 221.11 455.614C293.53 511.523 392.925 526.929 473.567 505.808C583.602 476.966 588.579 398.469 729.631 274.14C812.581 201.088 968.13 63.9404 1151.59 77.2227C1244.28 83.9411 1336.43 128.499 1422.08 169.89C1527.07 220.625 1542.14 246.688 1598.8 258.696C1666.1 272.982 1770.15 262.827 1919.78 135.14M-119.958 87.8022C-53.7795 122.44 5.88009 169.82 56.0407 227.575C60.8373 233.174 65.634 238.927 70.4668 244.835C148.837 342.444 145.735 401.403 219.308 457.544C251.378 482.111 287.691 499.606 326.133 509.013C353.669 515.724 381.91 518.528 410.129 517.353C431.232 516.462 452.173 513.03 472.558 507.121C495.274 500.87 516.867 490.642 536.466 476.85C572.531 451.367 597.777 416.964 636.619 373.796C665.878 341.309 697.71 311.595 731.759 284.99C749.792 270.704 770.854 253.483 795.198 235.838C860.332 188.501 943.679 137.07 1043.69 119.309C1077.62 113.11 1112.1 111.037 1146.47 113.131C1151.74 113.44 1156.97 113.903 1162.13 114.444C1213.19 119.734 1261.85 133.75 1311.54 152.36C1348.73 166.106 1383.89 183.249 1418.77 199.35C1433.37 206.223 1446.43 212.478 1458.22 218.347C1529.45 253.908 1547.95 272.982 1596.6 281.322C1633.57 287.654 1681.39 286.535 1742.09 263.986C1791.86 245.53 1850.79 212.285 1919.78 157.303M-121.869 102.32C-56.3761 135.649 2.91617 181.439 53.1197 237.46C57.9284 242.865 62.737 248.4 67.5457 254.063C146.889 348.545 144.978 404.647 217.541 459.475C249.688 484.362 286.116 502.195 324.727 511.948C352.425 518.703 380.851 521.404 409.228 519.979C430.362 518.826 451.288 514.936 471.549 508.395C494.151 501.401 515.628 490.764 535.24 476.85C572.748 450.594 599.364 417.311 637.773 377.001C667.169 346.406 699.37 319.06 733.887 295.377C751.92 282.712 772.513 267.191 796.605 251.823C860.801 210.857 939.063 167.882 1038.06 153.866C1072.26 148.821 1106.83 147.167 1141.32 148.924C1146.65 149.233 1151.92 149.619 1157.11 150.121C1209.05 154.986 1256.47 166.994 1307.18 183.558C1345.37 196.068 1380.21 212.903 1415.38 228.772C1429.98 235.336 1443.18 241.321 1455.26 246.92C1526.71 280.164 1545.86 297.693 1594.33 303.871C1631.26 308.582 1678.72 305.995 1739.75 283.176C1789.59 264.488 1849.28 231.861 1919.78 179.543M-124.141 116.606C-59.184 148.673 -0.133619 192.968 50.1981 247.383C54.9948 252.634 59.8275 257.962 64.6242 263.406C145.014 354.722 144.112 408.044 215.702 461.405C249.603 486.657 282.999 504.843 323.212 514.921C351.096 521.731 379.733 524.33 408.29 522.643C429.464 521.218 450.377 516.857 470.503 509.669C493.004 501.938 514.392 490.892 534.05 476.85C572.928 449.822 600.879 417.736 638.891 380.322C668.451 351.602 701.047 326.683 736.015 306.072C754.228 295.029 774.208 281.206 798.011 268.117C861.594 233.135 934.446 198.887 1032.44 188.539C1066.91 184.663 1101.6 183.437 1136.23 184.871C1141.6 185.141 1147.05 185.489 1152.1 185.952C1203.06 190.42 1253.49 200.131 1302.71 214.949C1341.91 226.185 1376.46 242.865 1412.06 258.31C1426.66 264.642 1439.97 270.318 1452.38 275.646C1524 306.535 1543.84 322.443 1592.1 326.575C1629.03 329.741 1676.24 325.571 1737.47 302.481C1787.43 283.793 1847.76 251.398 1919.78 201.551M-126.234 131.008C-61.9041 161.829 -3.16508 204.572 47.2763 257.267C52.073 262.364 56.9418 267.461 61.7024 272.712C142.957 361.016 143.318 411.211 213.898 463.375C248.556 488.897 280.835 507.585 321.769 517.894C349.813 524.771 378.641 527.255 407.352 525.269C428.623 523.617 449.574 518.796 469.6 510.944C491.951 502.538 513.227 491.161 532.931 477.082C573.18 449.243 602.645 418.47 640.117 383.604C666.553 359.047 697.821 337.579 738.25 316.729C756.608 307.23 776.155 295.068 799.561 284.295C862.892 255.144 929.973 229.853 1026.77 223.174C1061.46 220.434 1096.27 219.622 1131.04 220.741C1136.48 220.973 1141.86 221.282 1147.01 221.668C1198.06 225.251 1248.74 233.466 1298.49 246.225C1338.77 256.186 1372.82 272.751 1408.78 287.655C1423.2 293.755 1436.87 299.238 1449.57 304.219C1521.34 332.946 1541.86 347.039 1589.97 349.085C1626.9 350.668 1673.78 344.992 1735.27 321.671C1785.22 302.713 1846.28 270.897 1919.78 223.598M-128.288 145.41C-64.6014 175.005 -6.1885 216.195 44.3559 267.152C49.1525 272.055 54.0213 276.92 58.7819 281.94C141.011 366.885 142.489 414.57 212.023 465.266C247.439 491.097 278.6 510.287 320.219 520.828C348.45 527.765 377.492 530.133 406.379 527.855C427.655 525.965 448.549 520.695 468.375 512.218C490.592 503.101 511.777 491.327 531.525 477.12C573.181 448.548 604.197 419.203 641.055 386.885C668.285 363.101 700.239 344.413 740.199 327.347C758.772 319.393 777.887 308.968 800.788 300.319C864.371 276.766 925.286 260.665 1021.08 257.576C1054.36 256.495 1091.19 255.144 1125.84 256.418C1131.36 256.611 1136.66 256.881 1141.93 257.19C1192.99 259.886 1243.8 266.597 1293.94 277.268C1335.24 285.955 1369.03 302.404 1405.39 316.999C1419.99 322.868 1433.59 327.926 1446.61 332.714C1518.52 359.471 1539.84 372.599 1587.62 371.788C1624.55 371.171 1671.15 364.568 1732.86 340.899C1782.85 321.594 1844.66 290.434 1919.64 245.722M-130.381 159.774C-67.3245 188.172 -9.22778 227.823 41.4341 277.036C46.2307 281.747 51.1356 286.419 55.8602 291.207C139.099 373.063 141.695 417.813 210.183 467.197C246.249 493.26 276.363 512.99 318.74 523.801C347.103 530.754 376.295 533.007 405.296 530.481C426.642 528.327 447.538 522.594 467.22 513.492C489.256 503.626 510.335 491.469 530.154 477.197C573.18 447.814 605.891 419.744 641.957 390.129C670.015 366.962 702.69 351.286 742.11 337.965C760.972 331.555 781.493 327.849 801.978 316.69C868.446 313.717 920.741 285.801 1015.2 292.365C1048.56 294.72 1085.96 291.438 1120.47 292.365C1126.06 292.558 1131.47 292.751 1136.66 293.021C1192.28 295.84 1234.83 299.122 1289.36 308.466C1331.67 315.841 1365.1 332.212 1401.85 346.344C1416.28 351.981 1430.16 356.769 1443.51 361.286C1515.46 385.689 1537.53 396.036 1585.24 394.106C1622.21 392.523 1668.52 383.797 1730.44 359.935C1780.5 340.629 1842.97 309.74 1919.5 267.615M-132.472 174.176C-70.0537 201.376 -12.2762 239.461 38.5133 286.882C43.346 291.438 48.2509 295.879 52.9394 300.435C137.368 379.125 141.047 421.018 208.489 469.128C245.456 495.461 274.308 515.693 317.37 526.774C345.979 533.814 375.452 535.938 404.684 533.068C428.451 530.944 447.962 523.299 466.5 514.728C488.372 504.131 509.375 491.59 529.289 477.236C573.686 447.081 608.236 420.477 643.472 393.372C672.324 371.094 705.865 358.236 744.455 348.544C763.713 343.718 783.766 342.598 803.638 332.868C870.106 338.351 916.269 323.022 1009.79 326.922C1043.33 328.351 1081.16 327.501 1115.57 328.312C1121.19 328.312 1126.67 328.582 1131.83 328.776C1188.38 331.054 1229.71 332.212 1285.22 339.973C1328.5 346.073 1361.6 362.329 1398.75 376.036C1413.18 381.441 1427.17 385.92 1440.84 390.168C1512.97 412.485 1535.73 421.057 1583.26 416.925C1620.23 413.798 1666.21 403.566 1728.39 379.434C1778.48 360.128 1841.67 329.548 1919.71 290.01M-134.529 188.539C-72.7773 214.584 -15.338 251.087 35.5908 296.651C40.4236 301.053 45.3645 305.3 50.2334 309.586C135.528 385.109 140.396 424.107 206.684 470.904C244.409 497.507 272.143 518.28 315.926 529.554C344.672 536.672 374.313 538.707 403.673 535.578C427.764 533.223 446.951 524.96 465.38 515.886C488.138 504.689 506.855 491.561 527.954 477.275C573.756 446.386 615.196 427.814 644.517 396.616C677.733 381.441 708.785 352.483 746.617 359.163C766.309 362.638 785.928 357.309 805.115 349.047C871.619 362.947 911.904 354.182 1004.23 361.518C1037.92 364.182 1076.36 363.564 1110.48 364.144C1116.21 364.144 1121.7 364.144 1126.89 364.491C1184.31 366.229 1224.45 365.147 1280.89 371.248C1325.28 375.997 1357.96 392.175 1395.47 405.458C1409.89 410.632 1424.03 414.84 1437.99 418.779C1510.12 439.049 1533.78 445.575 1581.13 439.513C1618.13 434.764 1663.83 423.026 1726.19 398.623C1776.35 379.086 1840.08 349.047 1919.78 312.095M-136.62 202.903C-75.4996 227.846 -18.384 262.836 32.6701 306.613C37.5028 310.821 42.4437 314.682 47.3486 318.891C133.905 391.249 139.567 427.35 204.882 472.873C243.399 499.708 269.979 521.021 314.448 532.566C343.375 539.716 373.217 541.635 402.736 538.242C427.152 535.655 446.014 526.659 464.371 517.199C486.696 505.615 505.197 491.87 526.728 477.313C573.901 445.575 617.504 429.204 645.743 399.82C680.113 386.306 713.113 359.201 748.854 369.742C768.401 375.495 788.129 372.059 806.558 365.225C873.099 387.542 907.541 385.418 998.642 396.114C1032.47 399.975 1071.21 399.666 1105.39 399.975H1121.88C1180.23 401.133 1219.25 397.928 1276.56 402.292C1322 405.728 1354.28 421.868 1392.19 434.686C1406.61 439.629 1420.86 443.528 1435.14 447.158C1507.27 465.46 1531.79 469.977 1578.97 461.907C1615.97 455.537 1661.38 442.293 1723.95 417.659C1774.15 397.928 1838.75 368.391 1919.82 333.988M-138.712 217.227C-78.2952 241.11 -21.5604 274.545 29.605 316.42C34.4738 320.281 39.4148 324.142 44.3196 328.003C131.814 397.156 138.702 430.362 203.007 474.726C242.318 501.754 267.924 523.647 312.934 535.423C342.023 542.666 372.061 544.481 401.726 540.79C426.503 537.972 445.005 528.473 463.254 518.396C485.145 506.195 503.466 492.101 525.43 477.313C574.01 444.803 619.741 430.555 646.681 403.025C682.242 391.133 715.205 386.886 750.802 380.283C771.215 384.453 790.041 386.731 807.857 381.364C874.398 412.253 902.925 416.655 992.872 430.594C1026.85 435.883 1066.08 436.154 1100.13 435.729C1105.97 435.729 1111.56 435.729 1116.72 435.729C1176.01 434.918 1213.74 430.902 1272.05 433.605C1318.58 435.729 1350.42 451.791 1388.76 464.185C1403.19 468.857 1417.61 472.526 1432.04 475.769C1504.17 492.101 1529.41 494.534 1576.52 484.456C1613.55 476.502 1658.64 461.753 1721.5 436.849C1771.74 416.964 1836.91 387.889 1919.6 356.035M-140.767 231.591C-80.947 254.4 -24.4943 286.283 26.8639 326.266C31.6967 330.127 36.6737 333.718 41.5785 337.347C130.227 403.257 138.125 433.605 201.275 476.618C241.38 503.955 265.652 526.35 311.527 538.396C340.866 545.724 371.187 547.411 401.077 543.377C426.323 540.327 444.536 530.249 462.388 519.67C484.027 506.967 502.06 492.41 524.384 477.197C574.298 443.915 622.229 431.791 647.944 406.114C684.658 395.882 718.127 394.531 753.074 390.669C773.739 396.847 792.277 401.249 809.444 397.311C875.984 436.501 898.633 447.776 987.39 464.958C1021.51 471.56 1061.22 472.024 1095.15 471.367C1101.07 471.367 1106.66 471.367 1111.85 471.367C1172.01 469.939 1208.58 463.645 1267.83 464.765C1315.37 465.576 1346.85 481.599 1385.59 493.53C1400.01 498.009 1414.44 501.252 1429.41 504.38C1501.54 518.821 1527.79 519.129 1574.57 507.044C1611.61 497.468 1656.4 481.252 1719.48 456.077C1769.75 436.038 1835.79 407.427 1919.86 378.159M-142.859 245.916C-83.6808 267.708 -27.5612 298.054 23.9431 336.112C28.8119 339.973 33.7889 343.139 38.6938 346.575C128.532 409.203 137.44 436.694 199.473 478.51C240.371 506.04 263.489 528.975 310.085 541.292C339.531 548.666 369.984 550.249 399.959 545.964C425.205 542.644 443.526 531.987 461.27 520.867C482.332 507.662 500.221 492.642 523.086 477.39C574.407 443.297 624.466 433.335 648.99 409.473C686.895 400.863 720.724 402.176 755.13 401.481C776.012 409.628 794.297 416.191 810.779 413.682C877.355 461.328 894.089 479.321 981.692 499.746C1015.95 507.7 1056.13 507.778 1089.89 507.469C1095.87 507.469 1101.5 507.469 1106.69 507.469C1167.79 505.422 1203.17 498.627 1263.36 496.426C1311.91 494.65 1343.03 511.87 1382.16 523.454C1396.73 527.659 1411.5 531.011 1426.41 533.493C1498.54 546.08 1525.66 544.227 1572.26 530.134C1609.34 518.936 1653.8 501.252 1717.1 475.807C1767.59 455.614 1834.17 427.427 1919.75 400.747M-144.951 251.978C-86.4078 272.841 -30.6233 301.703 21.0213 337.849C25.8901 341.324 30.9032 344.49 35.8442 347.695C126.837 407.041 136.827 431.675 197.669 472.255C239.36 500.055 261.324 523.531 308.606 536.08C338.23 543.527 368.891 545.007 399.021 540.443C424.772 536.852 442.696 525.655 460.332 513.994C480.853 500.017 498.453 484.572 521.859 469.128C574.551 434.377 626.809 426.385 650.107 404.415C689.166 397.426 723.392 401.519 757.257 403.759C778.356 413.913 796.352 422.601 812.185 421.558C878.797 477.622 889.653 502.642 976.029 525.809C1010.47 535.114 1051.12 535.307 1084.8 534.728L1101.68 534.381C1163.71 533.222 1197.87 521.253 1259 518.936C1308.66 517.006 1339.31 533.029 1378.84 544.034C1393.57 548.023 1408.5 551.104 1423.56 553.262C1495.51 563.996 1523.68 559.903 1570.06 543.841C1607.17 531.022 1651.35 511.87 1714.86 486.155C1765.35 465.807 1832.69 438.084 1919.78 413.991M-147.115 254.41C-89.2276 274.214 -33.7896 301.439 17.9916 335.494C22.8965 338.815 27.9096 341.749 32.8505 344.722C125.178 400.863 136.033 422.794 195.865 462.023C238.386 490.017 259.16 514.071 307.163 526.89C336.978 534.349 367.847 535.659 398.119 530.751C424.158 526.89 441.867 515.307 459.25 502.951C479.41 488.781 496.902 472.796 520.561 457.081C574.659 421.443 629.045 415.69 651.153 395.573C691.402 390.206 727.287 391.056 759.349 402.292C782.323 410.361 798.408 425.458 813.447 425.458C880.059 489.939 885 521.987 970.223 548.281C1004.77 559.015 1045.96 559.285 1079.46 558.474C1085.6 558.474 1091.29 558.166 1096.45 558.011C1159.42 556.235 1192.35 542.065 1254.45 538.049C1305.12 534.767 1335.42 550.791 1375.34 561.216C1390.21 565.037 1405.3 567.848 1420.5 569.633C1492.41 578.591 1521.48 572.22 1567.68 554.189C1604.79 539.709 1648.68 519.091 1712.41 493.144C1762.9 472.641 1830.99 445.382 1919.6 423.644M-149.099 256.765C-91.8438 275.63 -36.7414 301.299 15.1781 333.293C20.119 336.42 25.1682 339.123 30.0731 341.903C123.554 394.569 135.384 413.566 194.062 451.791C237.34 479.977 256.96 504.611 305.864 517.662C335.834 525.343 366.92 526.655 397.362 521.523C423.761 517.392 441.217 505.113 458.384 492.41C478.148 477.777 495.423 461.251 519.695 445.304C575.127 408.894 631.678 405.303 652.631 387.001C693.998 383.14 730.605 387.426 761.765 401.094C785.171 411.365 800.787 428.122 815.286 430.014C881.898 502.951 880.924 541.987 965.029 571.255C999.723 583.417 1041.31 583.726 1074.78 582.838L1091.87 582.22C1155.74 579.865 1187.48 563.455 1250.56 557.818C1302.31 553.146 1332.17 569.401 1372.53 579.247C1387.54 582.933 1402.77 585.513 1418.12 586.969C1489.96 594.19 1519.96 585.502 1565.98 565.502C1603.1 549.401 1646.66 527.315 1710.64 501.098C1778.37 472.251 1848.36 449.922 1919.78 434.377M-151.19 257.538C-94.5552 275.556 -39.7882 299.724 12.2573 329.664C17.2343 332.598 22.2835 335.108 27.1883 337.656C121.932 386.963 134.699 403.295 192.259 440.208C236.403 468.587 254.796 493.8 304.242 507.121C334.401 514.836 365.704 515.965 396.28 510.442C422.968 506.04 440.208 493.221 457.194 479.977C476.525 464.88 493.584 447.853 518.217 431.675C575.056 394.492 633.626 393.063 653.498 376.576C696.055 374.491 733.238 381.982 763.641 398.006C787.444 410.554 802.627 429.242 816.44 432.524C883.089 513.878 876.164 559.942 959.114 592.182C993.954 605.773 1036.04 606.082 1069.37 604.885C1075.61 604.653 1081.41 604.345 1086.57 604.113C1151.49 601.14 1181.89 582.568 1245.87 575.27C1298.63 569.247 1328.13 585.348 1368.89 594.885C1384.05 598.352 1399.43 600.623 1414.91 601.68C1486.71 607.202 1517.62 596.12 1563.46 574.189C1600.57 556.428 1643.85 532.914 1708.05 506.388C1776.37 477.385 1847.33 456.098 1919.78 442.872M-153.283 255.337C-97.257 272.493 -42.8221 295.125 9.33554 322.945C14.3125 325.687 19.3977 328.003 24.3026 330.359C120.344 376.19 134.193 389.627 190.455 425.535C235.429 454.108 252.632 479.939 302.799 493.453C333.125 501.256 364.629 502.281 395.342 496.465C422.355 491.754 439.378 478.433 456.148 464.649C475.082 449.204 491.925 431.559 516.99 415.149C575.199 377.194 636.005 377.85 654.615 363.255C698.326 362.792 736.014 373.68 765.768 392.059C789.86 406.963 804.719 427.427 817.882 432.138C884.531 521.948 871.62 575 953.488 610.175C988.399 625.233 1031.03 625.619 1064.24 624.152C1070.52 623.882 1076.36 623.534 1081.52 623.264C1147.27 619.712 1176.48 598.862 1241.4 589.943C1295.21 582.529 1324.35 598.669 1365.43 607.742C1380.76 611.005 1396.3 613.005 1411.91 613.727C1483.68 617.588 1515.46 604.074 1561.12 580.212C1598.23 560.907 1641.25 535.809 1705.66 509.052C1774.48 479.756 1846.33 459.391 1919.68 448.393M-155.338 253.136C-99.9257 269.5 -45.8336 290.612 6.4151 316.266C11.4282 318.814 16.5134 320.86 21.4183 323.023C118.794 365.495 133.221 376.113 188.653 410.863C234.42 439.59 250.469 466.039 301.321 479.823C331.825 487.74 363.549 488.648 394.405 482.487C421.743 477.429 438.549 463.684 455.139 449.32C473.677 433.296 490.267 415.265 515.765 398.623C575.381 360.012 638.387 362.638 655.734 349.896C695.547 350.403 734.416 362.944 767.861 386.075C792.205 403.373 806.811 425.574 819.29 431.752C885.974 529.979 867.04 590.058 947.862 628.168C982.846 644.732 1026.02 645.041 1059.09 643.419C1065.47 643.11 1071.31 642.724 1076.51 642.377C1143.12 638.13 1171.25 615.349 1237.11 604.615C1291.89 595.85 1320.74 611.99 1362.22 620.6C1376.64 623.573 1391.86 624.036 1409.1 625.735C1480.58 632.801 1513.51 612.028 1558.99 586.197C1596.1 565.116 1638.84 538.705 1703.47 511.677C1772.85 482.09 1845.63 462.611 1919.86 453.76M-157.43 250.935C-102.605 266.527 -48.8388 286.11 3.49332 309.547C8.54245 311.864 13.6276 313.756 18.5686 315.686C117.171 354.298 132.715 362.599 186.849 396.191C233.481 425.111 248.16 452.139 299.878 466.193C330.61 474.213 362.602 475.003 393.647 468.51C421.273 463.104 437.863 448.895 454.273 433.991C472.306 417.504 488.751 398.971 514.682 382.098C575.705 342.56 640.911 347.347 656.996 336.575C697.873 338.87 737.195 354.094 769.988 380.322C794.476 399.975 808.903 423.952 820.696 431.559C887.417 538.203 862.423 605.31 942.2 646.392C977.291 664.424 1020.97 664.694 1054 662.879C1060.42 662.532 1066.34 662.068 1071.49 661.721C1139.04 656.817 1165.95 631.681 1232.78 619.48C1288.64 609.325 1316.95 625.581 1359.01 633.651C1374.71 635.99 1390.51 637.433 1406.36 637.975C1477.95 642.956 1511.6 620.175 1556.93 592.414C1594.01 569.671 1636.49 541.833 1701.19 514.535C1771.09 484.718 1844.75 466.213 1919.75 459.629M-159.521 248.734C-105.259 263.594 -51.8012 281.64 0.608595 302.79C5.65773 304.914 10.7429 306.651 15.6839 308.311C115.585 343.525 132.066 349.008 185.191 381.673C232.508 410.554 245.997 438.238 298.399 452.525C329.261 460.659 361.426 461.345 392.566 454.532C420.516 448.779 436.926 434.107 453.083 418.663C470.827 401.751 486.949 382.677 513.348 365.572C575.705 325.262 643.183 332.289 657.97 323.1C700.028 327.095 739.9 344.925 772.117 374.144C796.677 396.229 810.959 421.906 822.103 430.941C888.824 546.041 857.772 620.407 936.574 664.192C971.738 683.729 1015.92 683.961 1048.81 681.953C1055.3 681.567 1061.25 681.065 1066.41 680.64C1134.93 675.08 1160.58 647.782 1228.38 633.959C1285.29 622.376 1313.2 638.747 1355.58 646.315C1371.43 648.526 1387.39 649.699 1403.37 649.829C1475.06 652.724 1509.43 627.936 1554.59 598.205C1591.7 573.841 1633.93 544.535 1698.85 517.121C1769.31 487.039 1843.89 469.472 1919.64 465.112M-161.542 246.533C-99.7618 263.329 -44.3295 280.434 -2.27741 296.11C2.84385 298.041 7.92904 299.508 12.8339 301.053C114.069 332.559 131.453 335.494 183.278 366.692C231.57 395.882 244.012 424.184 296.992 438.741C328.023 446.974 360.397 447.542 391.663 440.401C419.939 434.262 436.168 419.203 452.109 403.18C469.42 385.804 485.325 366.228 512.157 348.892C575.921 307.81 645.599 316.96 659.123 309.779C702.333 315.517 742.691 335.923 774.28 368.005C798.876 392.523 814.637 418.392 823.581 430.401C906.531 542.103 853.118 635.465 930.983 682.031C966.183 703.112 1010.98 703.267 1043.72 701.066C1050.29 700.641 1056.24 700.062 1061.43 699.599C1130.78 693.382 1155.2 663.922 1224.01 648.516C1281.97 635.504 1309.49 651.952 1352.3 658.98C1368.25 661.513 1384.4 662.431 1400.52 661.721C1472.25 659.095 1507.41 635.697 1552.42 604.074C1589.5 578.012 1631.41 547.277 1696.68 519.477C1767.75 489.144 1843.27 472.504 1919.75 470.325M-163.668 244.332C-101.203 260.626 -46.1316 276.071 -5.23361 289.392C-0.0762792 291.091 5.00892 292.365 9.9138 293.716C112.556 321.517 130.768 321.941 181.44 352.135C230.597 381.48 241.813 410.477 295.478 425.265C326.703 433.607 359.312 434.056 390.727 426.578C419.29 420.014 435.303 404.57 451.028 387.967C467.979 370.128 483.487 350.05 510.896 332.482C576.03 290.589 647.692 301.902 660.242 296.535C709.796 304.257 748.747 331.903 776.373 362.174C800.933 389.202 816.477 417.118 824.952 430.13C905.198 553.185 848.395 650.794 925.286 700.178C960.522 722.765 1005.93 722.843 1038.53 720.449C1045.17 719.947 1051.19 719.368 1056.35 718.866C1126.64 711.954 1149.86 680.254 1219.61 663.304C1278.58 648.902 1305.7 665.466 1348.91 671.953C1365.03 674.292 1381.32 674.926 1397.56 673.845C1469.33 669.714 1505.32 643.767 1550.19 610.175C1587.23 582.452 1628.88 550.289 1694.45 522.218C1745.27 500.48 1819.13 476.889 1919.79 475.885M-165.762 242.132C-102.647 258.04 -47.9364 271.631 -8.15643 282.712C-2.96304 284.141 2.12218 285.222 7.02705 286.573C110.859 310.397 130.118 308.35 179.635 337.463C229.153 366.576 239.648 396.577 294.034 411.597C325.423 420.08 358.25 420.424 389.788 412.601C418.64 405.574 434.509 389.82 450.017 372.677C466.571 354.413 481.97 333.795 509.668 315.995C576.209 273.523 650.034 286.766 661.359 283.253C712.103 292.597 751.089 323.486 778.499 356.228C802.987 385.496 818.171 415.651 826.358 429.59C903.501 563.764 843.633 665.891 919.658 718.016C954.894 742.187 1000.88 742.148 1033.41 739.561C1040.08 739.021 1046.14 738.365 1051.44 737.824C1122.63 730.102 1144.67 696.433 1215.36 677.822C1275.37 662.03 1302.13 678.71 1345.73 684.656C1362.02 686.812 1378.46 687.175 1394.82 685.737C1466.62 680.061 1503.37 651.566 1548.13 616.044C1585.13 586.661 1626.54 553.069 1692.39 524.728C1743.28 502.835 1817.83 479.669 1920 481.329M-167.816 239.931C-104.089 255.375 -49.7388 267.19 -11.0768 276.071C-5.84737 277.268 -0.762184 278.195 4.14269 279.121C109.237 299.238 129.469 294.759 177.833 322.829C228.721 352.328 237.449 382.677 292.557 397.967C324.123 406.598 357.184 406.824 388.851 398.623C417.991 391.094 433.716 375.032 449.008 357.386C465.165 338.621 480.312 317.539 508.479 299.469C576.354 256.032 652.921 265.955 662.478 269.932C711.815 290.357 753.398 314.991 780.628 350.282C805.008 381.905 820.047 414.145 827.801 429.397C901.554 574.382 838.837 681.374 914.033 736.241C949.269 761.956 995.865 761.763 1028.25 759.021C1035.03 758.442 1041.09 757.747 1046.28 757.168C1118.41 748.905 1139.19 712.919 1210.85 692.687C1271.87 675.466 1298.24 692.301 1342.27 697.707C1358.72 699.674 1375.32 699.765 1391.79 697.977C1463.63 690.795 1501.18 659.713 1545.75 622.26C1582.75 591.371 1623.91 556.158 1690.01 527.547C1740.94 505.499 1816.24 482.835 1919.89 487.043M-169.909 237.73C-105.532 252.904 -51.5786 262.634 -13.9986 269.275C-8.73311 270.202 -3.6479 270.974 1.29304 271.708C107.613 288.002 128.856 281.168 176.029 308.118C227.963 337.849 235.176 368.738 291.113 384.183C322.863 392.925 356.151 393.031 387.949 384.492C417.306 376.422 432.922 360.128 447.961 342.019C463.758 322.714 478.653 301.207 507.253 282.944C576.534 238.734 654.723 255.453 663.595 256.572C717.693 263.484 755.67 306.458 782.611 344.297C800.833 370.695 816.403 399.077 829.063 428.972C899.39 584.498 833.896 696.626 908.406 754.234C943.606 781.493 990.852 781.262 1023.13 778.289C1029.95 777.671 1036.08 776.899 1041.16 776.281C1114.16 767.207 1133.74 729.098 1206.41 707.36C1268.41 688.672 1294.45 705.777 1338.88 710.564C1355.5 712.342 1372.25 712.148 1388.83 709.985C1460.75 701.298 1498.97 667.513 1543.48 628.245C1580.41 595.464 1621.31 559.054 1687.74 530.211C1738.74 508.009 1814.69 485.769 1919.89 492.565M-172 235.529C-107.083 250.047 -53.4535 258.001 -16.9194 262.557C103.971 277.615 126.115 266.418 174.226 293.446C226.882 323.061 233.121 354.877 289.635 370.669C321.563 379.558 355.084 379.558 387.011 370.669C447.529 352.908 449.188 302.636 506.027 266.418C576.679 221.397 656.996 241.205 664.714 243.251C767.572 270.279 815.539 391.171 830.614 428.586C897.443 594.306 829.171 711.877 902.744 772.227C945.446 807.247 1006.9 799.255 1036.19 795.393C1110.08 785.741 1128.48 745.43 1202.09 722.032C1285.04 695.622 1303.32 733.615 1386.02 722.032C1517.95 703.383 1539.12 596.931 1685.36 532.836C1736.39 510.48 1813.07 488.704 1919.78 498.086M-170.052 240.355C-106.289 254.873 -53.5616 263.522 -17.0275 268.31C100.653 284.218 123.627 273.716 171.449 300.782C223.131 330.127 230.019 361.016 285.127 376.924C316.387 385.766 349.202 386.217 380.664 378.237C440.388 363.139 442.696 314.103 498.669 279.276C567.807 235.954 645.708 253.985 654.724 255.568C739.08 270.202 785.605 359.201 808.506 406.693C813.194 416.385 816.585 424.725 819.326 430.748C887.85 587.626 823.149 700.603 895.64 757.593C938.918 791.532 1000.88 782.999 1031.39 779.331C1059.35 776.045 1086.45 766.998 1111.2 752.689C1136.45 739.137 1160.07 723.847 1198.91 713.692C1210.81 710.603 1221.42 708.904 1230.94 707.437C1288.64 698.517 1310.89 720.487 1380.43 707.244C1407.33 702.188 1433.23 692.278 1457.03 677.938C1521.62 639.326 1562.02 569.826 1662.03 519.091C1667.89 516.105 1674.02 513.196 1680.42 510.364C1731.92 487.429 1809.75 464.61 1918.09 473.375M-168.105 245.182C-105.64 259.7 -53.6697 268.696 -17.0996 274.024C97.2994 290.743 120.994 281.013 168.673 308.157C219.416 336.884 226.918 367.503 280.475 383.14C311.093 391.958 343.227 392.884 374.245 385.843C433.067 373.217 436.205 325.764 491.276 292.095C558.935 250.742 634.78 264.063 644.662 267.885C722.707 297.809 773.343 365.379 796.929 410.129C801.726 419.242 805.044 427.234 807.749 432.871C877.86 581.1 816.982 689.212 888.319 742.959C931.958 775.779 994.603 766.744 1026.34 763.23C1054.52 760.133 1081.99 751.838 1107.52 738.712C1133.17 726.472 1157.15 713.228 1195.52 705.39C1207.46 702.919 1218.14 701.992 1227.66 700.525C1285.18 691.606 1306.46 708.942 1374.59 692.417C1401.18 685.857 1426.64 674.86 1450.03 659.829C1512.21 621.218 1554.62 549.285 1656.65 496.85C1662.6 493.839 1668.81 490.827 1675.26 487.893C1727.2 464.378 1806.18 440.517 1916.18 448.625M-166.157 250.008C-104.991 264.488 -53.8139 274.025 -17.2798 279.932C93.8733 297.346 118.362 288.504 165.823 315.648C215.594 343.911 223.744 373.951 276.003 389.511C305.963 398.253 337.389 399.573 367.897 393.372C425.601 383.14 429.749 337.27 483.919 304.914C550.099 265.376 623.528 275.492 634.672 280.125C696.643 306.717 749.327 353.335 785.388 413.489C790.293 422.022 793.575 429.667 796.208 434.957C867.834 574.228 810.85 677.899 880.925 728.403C925.069 760.141 988.291 750.527 1021.26 747.245C1049.66 744.278 1077.48 736.714 1103.77 724.812C1129.88 713.885 1154.26 702.726 1192.06 697.128C1204.11 695.352 1214.82 695.158 1224.34 693.691C1281.79 684.733 1301.91 697.552 1368.6 677.668C1394.83 669.567 1419.85 657.502 1442.89 641.836C1502.65 602.955 1547.27 528.975 1651.1 474.688C1657.09 471.599 1663.36 468.523 1669.92 465.46C1722.29 441.405 1802.46 416.501 1914.09 423.991M-164.21 254.796C-104.341 269.314 -53.922 279.353 -17.3158 285.685C90.5915 303.794 115.909 295.84 163.01 323.022C211.771 350.861 220.715 380.244 271.387 395.766C300.718 404.553 331.485 406.397 361.55 401.172C418.425 393.45 423.293 349.046 476.598 317.964C541.299 279.932 611.446 295.068 624.682 292.481C700.96 308.968 748.926 377.426 773.884 416.964C778.897 424.879 782.107 432.138 784.92 437.119C858.132 567.548 805.044 666.509 873.82 713.692C918.541 744.349 982.233 734.194 1016.46 731.067C1045.12 728.244 1073.31 721.416 1100.31 710.757C1126.93 701.143 1151.6 692.108 1188.92 688.71C1201.04 687.591 1211.79 688.17 1221.38 686.703C1278.76 677.745 1297.73 685.892 1363.19 662.802C1390.92 652.995 1413.68 638.94 1436.33 623.65C1493.75 584.691 1540.34 508.241 1646.16 452.37C1652.17 449.204 1658.52 446.051 1665.2 442.911C1718.04 418.238 1799.36 392.291 1912.61 399.164M-162.298 259.623C-103.837 274.102 -54.0665 284.643 -17.28 291.207C87.3093 309.972 113.276 303.099 160.377 330.127C208.128 357.618 217.613 386.306 267.022 401.751C295.671 410.533 325.716 412.821 355.238 408.469C411.031 402.755 416.874 360.321 469.276 330.552C532.463 294.682 600.049 308.466 614.764 304.721C688.769 319.702 736.7 383.411 762.415 420.323C767.536 427.659 770.71 434.571 773.595 439.204C848.358 560.714 799.273 655.003 866.679 698.981C911.977 728.557 976.173 717.823 1011.59 714.927C1047.65 711.993 1073.08 704 1096.81 696.741C1123.93 688.44 1149.18 676.393 1185.71 680.293C1196.51 681.539 1207.42 681.345 1218.17 679.714C1275.52 670.756 1293.26 674.424 1357.46 647.898C1384.32 636.817 1406.68 621.565 1429.59 605.426C1484.66 566.505 1533.24 487.7 1641 430.014C1647.08 426.771 1653.5 423.528 1660.26 420.284C1713.53 395.071 1796.01 368.082 1910.91 374.298M-160.352 264.488C-103.044 278.967 -54.1757 290.01 -17.5334 296.998C83.9182 316.304 110.715 310.435 157.599 337.54C204.484 364.645 214.547 392.6 262.477 408.083C304.241 421.559 339.044 418.663 349.034 416.153C402.302 402.639 410.525 371.943 462.062 343.486C523.734 309.431 588.832 321.98 604.917 317.115C676.615 330.629 724.473 389.434 751.053 423.798C756.247 430.555 759.384 437.119 762.306 441.443C838.62 554.034 793.646 643.535 859.682 684.463C905.629 712.958 970.222 701.645 1006.9 698.942C1043.58 696.24 1069.29 688.981 1093.46 682.841C1121.05 675.853 1147.16 665.389 1182.65 672.069C1193.36 674.19 1204.31 674.463 1215.1 672.88C1272.38 663.922 1288.93 663.111 1351.83 633.187C1377.87 620.832 1399.72 604.345 1422.66 587.51C1475.42 548.899 1526.02 467.429 1635.7 407.929C1641.83 404.608 1648.32 401.288 1655.17 397.967C1708.91 372.175 1792.55 344.143 1909.07 349.703M-158.404 269.198C-102.395 283.793 -54.3198 295.377 -17.6415 302.636C80.5642 322.405 108.154 317.655 154.823 344.761C200.625 371.402 211.445 398.817 257.969 414.261C298.579 427.736 332.408 426.076 342.542 423.682C394.765 411.249 403.853 383.449 454.561 356.305C514.718 324.026 577.183 335.417 594.783 329.277C664.208 341.286 711.886 394.917 739.368 427.08C743.425 432.313 747.229 437.764 750.765 443.413C828.558 547.084 787.804 631.759 852.252 669.675C898.885 697.05 963.874 685.119 1001.78 682.687C1038.24 680.293 1065.04 673.691 1089.67 668.71C1117.76 663.034 1144.74 654.423 1179.15 663.574C1189.8 666.594 1200.9 667.355 1211.82 665.814C1269.06 656.817 1284.39 651.605 1346.02 618.206C1371.27 604.576 1392.55 586.931 1415.66 569.247C1466.16 530.636 1518.74 446.849 1630.32 385.534C1636.5 382.136 1643.07 378.739 1650.02 375.341C1704.11 348.969 1788.98 319.895 1907.16 324.837M-156.457 273.947C-101.746 288.465 -54.464 300.435 -17.7135 308.312C77.2102 328.621 105.594 324.953 152.226 352.058C197.055 378.275 208.524 404.994 253.605 420.362C293.277 433.837 325.952 433.412 336.375 431.134C387.588 419.898 397.686 394.878 447.384 369.009C506.026 338.544 566.075 348.738 584.973 341.556C652.09 352.058 699.516 400.901 728.044 430.362C732.137 435.162 735.978 440.202 739.549 445.459C818.892 540.173 782.358 619.944 845.22 654.925C892.537 681.22 957.888 668.748 997.018 666.509C1033.8 664.347 1061.21 658.439 1086.28 654.617C1116.07 650.23 1146.3 650.399 1176.05 655.119C1188.74 656.856 1199.42 660.254 1208.83 658.98C1265.99 649.945 1280.09 640.408 1340.47 603.495C1364.78 588.63 1385.66 569.71 1408.99 551.254C1457.28 512.952 1511.74 426.501 1625.38 363.371C1631.59 359.935 1638.26 356.421 1645.33 352.908C1699.93 325.88 1785.98 295.84 1905.68 300.165M-154.328 280.588C-100.915 295.068 -54.391 307.616 -17.6405 315.841C73.8931 336.575 103.07 333.988 149.269 361.209C193.161 387.001 205.243 413.064 248.918 428.393C287.291 441.868 319.101 442.64 329.812 440.517C380.087 430.594 390.943 408.199 439.883 383.642C496.974 354.993 554.535 363.989 574.803 355.688C639.721 364.684 686.606 408.431 716.323 435.69C720.455 440.051 724.344 444.666 727.972 449.513C808.578 535.269 776.625 610.098 837.827 642.184C885.902 667.397 951.541 654.385 991.934 652.338C1028.97 650.446 1057.03 645.234 1082.53 642.57C1111.6 639.519 1138.68 642.106 1172.69 648.709C1185.57 651.219 1196.21 655.273 1205.58 653.806C1262.68 644.771 1275.59 630.909 1334.7 590.406C1358.14 574.305 1378.52 554.188 1402.03 534.883C1448.16 496.966 1504.49 407.851 1619.9 342.869C1626.18 339.316 1632.89 335.764 1640.06 332.135C1695.1 304.643 1782.2 273.484 1903.66 277.152M-152.561 297.307C-100.447 311.786 -54.7163 324.721 -17.9297 333.486C70.5383 354.606 100.509 353.294 146.492 380.322C189.409 405.689 202.14 431.134 244.409 446.386C281.628 459.861 312.428 461.83 323.464 459.861C372.801 451.328 384.45 431.482 432.525 408.238C488.066 381.21 543.137 389.241 564.813 379.742C627.35 387.465 670.303 432.099 704.818 450.903C709.398 456.154 713.365 460.401 716.539 463.413C798.515 540.172 771.142 610.136 830.614 639.326C879.482 663.381 945.409 649.829 987.029 648.014C1024.32 646.392 1053.03 641.875 1078.96 640.292C1108.53 638.554 1136.12 643.689 1169.3 652.068C1182.36 655.35 1192.96 660.061 1202.3 658.555C1259.36 649.52 1271.04 631.527 1328.86 587.278C1351.47 570.019 1371.34 548.667 1395.03 528.473C1439.03 490.982 1497.21 399.125 1614.53 332.328C1620.85 328.75 1627.64 325.094 1634.9 321.362C1690.41 293.485 1778.77 261.283 1901.75 264.488M-150.721 312.366C-99.7968 326.845 -54.8595 340.204 -18.0369 349.433C67.2214 370.9 98.1293 370.9 143.716 398.083C185.66 422.987 199.04 447.814 239.866 463.027C275.931 476.464 305.721 479.475 317.118 477.815C365.553 470.749 377.96 453.413 425.313 431.482C479.411 406.384 531.886 413.064 554.968 402.446C615.197 408.469 657.718 449.05 693.422 464.687C697.164 468.683 701.127 472.435 705.288 475.923C788.526 543.763 765.841 608.476 823.546 635.079C873.244 657.976 939.387 643.883 982.233 642.338C1019.81 640.948 1049.17 637.126 1075.5 636.778C1105.58 636.353 1133.71 644.114 1166.17 654.192C1179.37 658.285 1189.97 663.613 1199.31 661.914C1256.26 652.84 1266.79 630.562 1323.3 582.722C1344.94 564.305 1364.45 541.756 1388.22 520.674C1430.09 483.684 1490.07 389.009 1609.3 320.358C1615.65 316.497 1622.54 312.945 1629.89 309.161C1685.83 280.473 1775.24 247.383 1899.99 249.661M-148.701 327.424C-99.1118 341.903 -54.9319 355.688 -18.1453 365.456C63.9032 387.156 95.3881 388.43 140.939 415.651C181.909 440.131 195.938 464.34 235.357 479.476C270.341 492.912 299.049 494.032 310.77 495.615C358.196 502.102 371.468 475.151 417.811 454.571C470.286 431.404 520.345 436.771 544.833 424.995C602.79 429.512 644.806 465.884 681.881 478.356C685.66 481.959 689.66 485.288 693.855 488.317C778.32 547.2 760.395 606.7 816.477 630.677C866.968 652.377 933.364 637.821 977.472 636.469C1015.34 635.349 1045.31 632.261 1072.07 633.033C1102.65 633.921 1131.25 644.384 1163.03 656.2C1176.41 661.103 1186.94 667.011 1196.28 665.544C1253.19 656.431 1262.57 629.982 1317.71 578.436C1338.67 558.86 1357.56 535.076 1381.58 513.106C1421.26 476.657 1483.14 379.125 1604.29 308.466C1610.71 304.759 1617.64 300.898 1625.1 296.883C1681.47 267.615 1772.06 233.328 1898.43 235.104M-146.754 342.521C-98.4625 357.155 -55.1121 371.171 -18.2534 381.441C60.5852 403.373 92.8276 405.998 138.162 433.258C178.158 457.274 192.837 480.711 230.813 496.156C264.678 509.592 292.413 511.6 304.386 513.647C350.622 521.369 364.94 497.121 410.454 477.854C461.378 456.27 508.984 460.672 534.843 447.737C590.492 450.787 632.219 482.873 670.232 492.217C674.047 495.438 678.086 498.342 682.314 500.905C767.933 550.868 754.986 605.155 808.975 626.507C860.44 646.933 926.945 631.913 972.243 630.832C1010.4 629.944 1041.02 627.589 1068.21 629.519C1099.3 631.72 1128.37 644.964 1159.46 658.207C1172.98 663.999 1183.51 670.486 1192.82 668.98C1249.66 659.868 1257.95 629.287 1311.83 573.996C1331.96 553.262 1350.35 528.28 1374.51 505.384C1412.31 469.514 1475.79 369.086 1598.84 296.883C1605.31 293.047 1612.32 289.186 1619.87 285.299C1676.71 255.491 1768.42 220.162 1896.45 221.32M-144.806 357.58C-97.9214 372.02 -55.2562 386.615 -18.3615 397.426C57.3755 419.512 90.2671 423.605 135.385 450.826C174.443 474.417 189.735 497.43 226.305 512.604C259.016 526.041 285.777 528.937 298.039 531.446C343.048 540.597 358.448 518.82 403.097 500.905C452.47 481.097 497.588 484.341 524.853 470.247C578.23 471.792 619.344 499.669 658.728 505.847C662.589 508.67 666.667 511.138 670.918 513.222C757.474 554.42 749.684 603.07 801.762 622.067C853.841 641.064 920.778 625.928 967.338 624.963C1005.75 624.307 1037.02 622.646 1064.71 625.735C1096.27 629.249 1125.81 645.041 1156.25 660.099C1169.92 666.779 1180.45 673.768 1189.72 672.3C1246.48 663.15 1253.73 628.515 1306.06 569.401C1325.43 547.547 1343.32 521.369 1367.63 497.507C1403.4 462.332 1468.61 358.931 1593.54 284.72C1600.03 280.859 1607.14 276.998 1614.78 272.789C1671.98 242.247 1764.88 205.876 1894.54 206.571M-142.859 372.599C-97.164 387.04 -55.3644 402.021 -18.4335 413.334C53.9855 435.574 87.7065 441.096 132.608 468.355C170.693 491.522 186.706 513.878 221.761 528.859C253.39 542.296 279.177 546.08 291.692 549.053C335.511 559.44 351.921 540.366 395.776 523.763C443.562 505.693 486.192 507.855 514.791 492.603C565.86 492.603 606.505 516.272 647.115 519.284C651.052 521.71 655.179 523.764 659.449 525.423C747.304 557.934 744.419 600.87 794.549 617.55C847.89 635.272 914.611 619.557 962.433 619.017C1001.1 618.554 1033.01 617.627 1061.07 621.874C1093.13 626.701 1123.07 645.466 1152.89 661.875C1166.71 669.598 1177.2 676.973 1186.47 675.467C1243.2 666.354 1249.4 627.627 1300.29 564.691C1318.87 541.717 1336.36 514.496 1360.67 489.514C1394.49 455.035 1461.36 348.66 1588.2 272.596C1594.77 268.658 1601.92 264.591 1609.66 260.395C1667.36 229.506 1761.42 192.053 1892.74 191.937M-140.911 387.735C-96.5147 402.176 -55.5085 417.504 -18.5416 429.397C50.7037 451.714 85.182 458.741 129.831 486.078C166.942 508.743 183.532 530.52 217.253 545.424C239.328 554.691 262.11 561.9 285.344 566.969C327.973 578.552 345.393 562.181 388.419 546.93C434.618 530.597 474.975 531.485 504.873 515.23C553.634 513.801 593.846 533.184 635.682 533.068C639.682 535.084 643.847 536.7 648.125 537.894C736.773 561.679 739.225 598.785 787.336 613.187C841.687 629.442 908.48 614.422 957.492 613.187C996.443 612.221 1028.97 612.801 1057.5 618.168C1089.96 624.307 1120.4 645.929 1149.61 663.806C1163.53 672.301 1174.06 680.332 1183.3 678.826C1239.96 669.675 1245.18 626.932 1294.59 560.135C1312.37 536.08 1329.33 507.585 1353.81 481.676C1385.66 447.93 1454.18 338.544 1582.94 260.627C1589.54 256.765 1596.75 252.48 1604.58 248.194C1662.75 216.648 1757.96 178.191 1890.9 177.458M-138.963 402.832C-95.6851 417.273 -55.6166 432.91 -18.6497 445.305C47.4218 467.622 82.6215 476.194 127.09 503.569C163.155 525.771 180.43 546.968 212.709 561.795C234.222 571.311 256.382 579.056 278.997 584.962C320.508 597.665 338.865 584.035 381.062 570.212C425.674 555.54 463.435 555.501 494.883 537.972C541.372 534.999 581.115 550.173 624.141 546.891C628.215 548.483 632.416 549.672 636.692 550.443C726.35 565.695 734.068 596.777 780.124 608.978C835.52 623.65 902.313 608.437 952.588 607.511C991.827 606.816 1024.97 608.09 1053.93 614.615C1086.97 622.067 1117.66 646.547 1146.37 665.891C1160.32 675.312 1170.93 683.845 1180.12 682.34C1236.75 673.15 1241 626.392 1288.86 555.733C1305.92 530.558 1322.4 500.944 1346.93 474.031C1376.93 441.057 1447.04 328.621 1577.74 248.812C1584.38 244.757 1591.7 240.51 1599.63 236.108C1658.28 204.022 1754.71 164.523 1889.2 163.133M-137.052 417.929C-95.2166 432.331 -55.7251 448.316 -18.7582 461.405C44.0314 483.761 80.0966 493.877 124.313 521.291C159.476 543.068 177.329 563.764 208.2 578.398C229.151 587.985 250.668 596.085 272.613 602.646C313.042 616.43 332.337 605.619 373.596 593.147C416.658 580.212 451.929 579.093 484.785 560.366C528.965 555.926 568.24 566.853 612.528 560.366C616.672 561.548 620.91 562.311 625.187 562.644C715.855 569.44 728.73 594.228 772.802 604.383C829.244 617.434 896.037 602.066 947.574 601.526C987.066 601.062 1020.86 603.032 1050.25 610.715C1083.79 619.48 1114.81 646.817 1142.98 667.628C1157 678.015 1167.64 686.934 1176.84 685.505C1233.39 676.316 1236.78 625.503 1283.05 550.984C1299.35 524.728 1315.51 494.032 1339.93 466.039C1368.2 433.875 1439.76 318.543 1572.4 236.687C1579.08 232.556 1586.47 228.231 1594.51 223.753C1653.59 191.126 1751.11 150.546 1887.33 148.654M-135.105 433.026C-94.5673 447.467 -55.7611 463.683 -18.8663 477.468C40.9299 499.746 77.5361 511.523 121.536 538.937C155.762 560.25 174.227 580.29 203.656 594.923C224.053 604.729 244.957 613.276 266.266 620.523C305.613 635.388 325.773 627.357 366.347 616.275C407.822 605.001 440.641 602.839 474.903 582.992C516.811 577.046 555.617 583.726 601.131 574.15C605.364 574.755 609.628 575.078 613.898 575.116C705.504 579.479 723.681 591.912 765.697 600.097C823.185 611.295 890.014 595.232 942.742 595.773C982.413 596.197 1016.96 598.244 1046.79 607.086C1080.84 617.163 1112.1 647.396 1139.8 669.636C1153.9 680.988 1164.61 690.409 1173.78 688.942C1230.29 679.752 1232.81 624.963 1277.43 546.582C1293.01 519.207 1308.7 487.429 1333.18 458.278C1359.51 426.925 1432.76 308.35 1567.14 224.795C1573.9 220.574 1581.34 216.185 1589.46 211.629C1648.97 178.346 1747.68 136.761 1885.52 134.136M-133.157 448.085C-93.918 462.487 -55.8692 478.974 -18.9744 493.414C37.7201 515.577 74.9755 529.014 118.759 556.505C152.011 577.355 171.089 596.816 199.148 611.372C225.115 624.886 246.033 632.608 259.918 638.4C298.219 654.269 319.245 649.057 358.989 639.442C394.941 630.605 430.322 619.294 464.913 605.58C502.854 591.294 542.453 577.085 589.591 587.858C593.87 588.495 598.217 588.391 602.466 587.549C695.298 577.741 718.488 589.479 758.484 595.773C817.054 604.963 883.847 589.132 937.837 589.981C977.905 590.599 1012.96 593.418 1043.22 603.379C1077.73 614.963 1109.29 647.937 1136.52 671.606C1150.66 683.923 1161.48 693.807 1170.64 692.301C1227.04 683.073 1228.78 624.268 1271.62 542.026C1286.48 513.531 1301.81 480.75 1326.19 450.479C1350.57 420.207 1425.62 298.504 1561.77 212.787C1568.55 208.579 1576.19 204.061 1584.31 199.389C1644.28 165.566 1744.11 122.939 1883.65 119.657M-131.21 463.181C-93.2698 477.583 -55.9422 494.071 -19.0475 509.515C34.5094 531.562 72.4501 546.698 115.981 574.228C148.44 594.614 167.987 613.495 194.603 627.975C219.452 641.527 239.649 649.983 253.57 656.277C290.861 673.15 312.681 670.717 351.631 662.57C389.896 654.578 415.286 644.384 454.922 628.206C490.627 613.611 528.639 610.793 578.085 601.564C582.629 600.715 586.993 600.792 591.068 600.02C685.054 581.95 713.294 586.969 751.27 591.448C810.886 598.437 877.715 583.07 932.895 584.189C973.252 585.039 1008.96 588.591 1039.65 599.634C1074.67 612.376 1106.44 648.361 1133.24 673.497C1147.41 686.78 1158.48 697.128 1167.46 695.622C1223.8 686.394 1224.77 623.534 1265.99 537.315C1280.17 507.7 1295.17 473.993 1319.41 442.486C1342.24 412.832 1418.59 288.234 1556.61 200.663C1563.46 196.377 1571.03 191.782 1579.36 186.995C1639.77 152.631 1740.79 108.961 1881.92 105.023M-129.083 478.24C-92.4404 492.642 -55.7981 509.438 -18.9755 525.384C31.5159 547.277 70.0696 563.996 113.384 591.719C144.725 611.642 165.065 629.944 190.275 644.385C213.97 657.899 233.301 667.049 247.402 673.999C283.72 691.877 306.333 692.224 344.49 685.583C381.132 679.173 404.322 668.787 445.112 650.833C478.689 635.929 516.016 628.94 566.724 615.31C571.232 614.113 575.704 613.611 579.852 612.492C675.064 586.197 708.389 591.526 744.237 587.124C805.306 579.944 866.749 577.054 928.17 578.475C968.816 579.518 1005.13 583.803 1036.37 596.082C1071.89 610.136 1103.84 649.018 1130.14 675.583C1144.31 689.83 1155.38 700.603 1164.47 699.135C1220.77 689.869 1220.95 622.994 1260.48 533.107C1273.96 502.411 1288.71 467.776 1312.73 434.995C1333.83 406.23 1411.59 278.426 1551.52 189.041C1558.41 184.678 1565.95 180.006 1574.5 175.141C1635.37 140.159 1737.51 95.4473 1880.29 90.9298M-127.315 489.09C-91.9712 503.492 -56.0142 520.404 -19.1194 537.161C28.3424 558.822 67.4372 577.471 110.715 605.078C141.118 624.384 162.072 642.3 185.875 656.624C208.416 670.177 226.918 680.023 241.127 687.513C276.58 706.356 299.878 709.483 337.241 704.348C372.297 699.521 393.395 689.135 435.231 668.903C466.752 653.651 503.538 642.647 555.328 624.5C559.836 622.917 564.308 621.874 568.564 620.368C665.074 585.927 703.34 582.684 737.133 578.282C798.907 570.144 861.147 566.75 923.374 568.127C964.272 569.401 1001.24 574.421 1032.76 587.858C1068.83 603.302 1100.92 644.964 1126.96 672.803C1141.1 688.015 1152.21 699.29 1161.4 697.784C1217.63 688.479 1217.13 617.588 1254.85 523.801C1267.65 491.947 1282.26 456.463 1305.95 422.408C1325.39 394.492 1404.52 263.522 1546.36 172.284C1553.29 167.843 1561.04 163.094 1569.55 158.152C1630.87 122.591 1734.19 76.8366 1878.6 71.6627M-125.476 494.92C-91.4302 509.322 -56.0863 526.234 -19.4801 543.879C24.9523 565.308 64.7684 585.657 107.542 613.38C137.007 632.338 158.538 649.597 180.935 663.806C202.357 677.397 220.029 687.861 234.383 696.124C268.97 715.931 292.953 721.8 329.487 718.209C362.956 714.927 382.106 704.811 424.844 682.224C454.345 666.779 490.699 651.643 543.39 628.94C547.935 627.009 552.443 625.426 556.734 623.534C654.688 580.869 697.605 568.938 729.523 564.652C791.664 556.351 859.142 551.022 918.036 553.069C959.223 554.497 996.803 560.289 1028.79 574.884C1065.33 591.564 1097.57 636.16 1123.28 665.659C1137.42 681.876 1148.78 693.537 1157.83 692.031C1214.02 682.764 1212.8 607.781 1248.75 510.172C1260.87 477.197 1275.41 440.903 1298.67 405.496C1316.49 378.468 1396.95 244.332 1540.7 151.241C1547.7 146.762 1555.49 141.897 1564.11 136.839C1625.89 100.737 1730.33 53.94 1876.4 48.0325M-123.456 500.48C-90.6731 514.843 -55.9062 531.755 -19.4803 550.366C23.1041 571.728 64.6122 595.468 104.873 621.488C133.4 640.021 155.364 656.74 176.534 670.795C196.767 684.502 213.646 695.544 228.144 704.464C261.901 725.275 286.533 733.847 322.238 731.839C354.156 730.063 371.467 720.449 414.962 695.313C442.588 679.366 478.545 660.369 531.994 633.148C536.538 630.832 541.082 628.708 545.446 626.469C644.806 575.579 692.051 552.914 722.418 550.791C785.857 546.466 853.083 535.346 913.239 537.779C954.714 539.362 992.908 546.003 1025.33 561.718C1062.37 579.71 1094.72 627.357 1120.11 658.246C1134.18 675.428 1145.72 687.552 1154.77 686.085C1210.89 676.741 1208.87 597.703 1243.13 496.271C1255.23 458.275 1271.6 421.997 1291.89 388.237C1308.12 362.02 1389.88 224.757 1535.51 129.811C1542.54 125.255 1550.4 120.313 1559.13 115.178C1621.34 78.4968 1726.98 30.6574 1874.67 24.2093M-121.509 505.808C-44.2482 541.076 30.4878 582.372 102.096 629.365C217.288 705.004 248.773 745.855 314.881 745.199C363.028 744.697 374.388 722.765 520.453 637.087C630.307 572.645 685.235 540.559 715.205 536.697C822.896 523.222 940.613 506.542 1021.76 548.281C1080.26 578.359 1126.35 683.729 1151.59 679.559C1226.43 667.127 1196.89 523.184 1285.04 370.669C1299.71 345.263 1382.74 204.91 1530.28 108.112C1587.55 70.5429 1702.53 8.06977 1872.9 0" stroke="url(#paint0_linear_98_628)" stroke-opacity="0.15" stroke-width="2" stroke-miterlimit="10"/>
<defs>
<linearGradient id="paint0_linear_98_628" x1="874" y1="0" x2="874" y2="799" gradientUnits="userSpaceOnUse">
<stop stop-color="#5362F6"/>
<stop offset="1" stop-color="#5362F6" stop-opacity="0"/>
</linearGradient>
</defs>
</svg>
