<svg width="294" height="160" viewBox="0 0 294 160" fill="none" xmlns="http://www.w3.org/2000/svg">
<rect width="294" height="160" rx="24" fill="#5362F6"/>
<path d="M237.966 72.1487C237.277 72.0504 236.561 72.0864 235.868 72.0864H76.5193C73.89 72.0864 70.9783 72.4499 68.6936 70.8943C67.4069 70.0166 66.4385 68.8507 65.759 67.5276H219.685C222.095 67.5276 224.12 67.3573 226.155 65.687C229.041 63.3192 231.637 60.5092 234.267 57.8793C236.906 55.2397 239.689 52.6327 242.115 49.79C243.602 48.0477 244.554 45.9779 244.856 43.7017C245.385 39.7193 244.521 35.0687 241.18 32.4847C238.859 30.6933 236.069 31.0241 233.334 31.0241H154.753C154.339 31.0241 152.327 33.2249 152.37 33.1823C150.502 34.9672 148.664 36.7848 146.839 38.6123C145.01 40.4398 143.182 42.2673 141.396 44.134C141.071 44.4746 139.541 46.5117 139.233 46.5117H218.812C220.417 46.5117 222.193 46.3447 223.723 46.8949C226.188 47.7824 227.8 49.7114 228.68 52.0432H73.7094C73.1383 52.0432 72.554 52.0137 71.9828 52.0596C70.7026 52.1578 69.5537 52.6425 68.5099 53.3696C67.7844 53.874 67.1443 54.4831 66.4976 55.0825C63.4809 57.8924 60.566 60.8236 57.6642 63.7547C54.3324 67.1149 50.0914 70.4096 49.2149 75.3287C48.2991 80.464 50.9153 87.3743 56.9158 87.5708C57.4148 87.5872 57.917 87.5708 58.4127 87.5708H217.952C221.186 87.5708 224.192 87.2859 226.674 89.9648C227.524 90.8819 228.174 91.9659 228.64 93.1449H74.4316C72.2848 93.1449 70.4171 93.1351 68.5099 94.4713C66.7274 95.7158 65.2043 97.4024 63.6582 98.9057C59.9686 102.498 56.2757 106.111 52.7732 109.887C51.1384 111.649 49.8615 113.516 49.3199 115.897C48.3778 120.056 49.4742 125.25 53.1736 127.772C55.4288 129.311 58.2288 128.967 60.8188 128.967H139.236C139.65 128.967 141.662 126.766 141.619 126.809C143.487 125.024 145.325 123.206 147.15 121.379C148.979 119.551 150.807 117.724 152.593 115.857C152.918 115.517 154.448 113.48 154.756 113.48H75.4689C74.064 113.48 72.4982 113.637 71.1097 113.339C68.3818 112.756 66.5764 110.938 65.5719 108.626H220.28C220.851 108.626 221.435 108.655 222.006 108.61C223.286 108.511 224.435 108.027 225.479 107.3C226.205 106.792 226.845 106.186 227.491 105.587C230.508 102.777 233.423 99.8456 236.325 96.9145C239.657 93.5543 243.898 90.2596 244.774 85.3438C245.667 80.3395 243.921 72.9936 237.966 72.1454V72.1487Z" fill="white"/>
</svg>
