<svg width="40" height="40" viewBox="0 0 40 40" fill="none" xmlns="http://www.w3.org/2000/svg">
<path d="M29.9999 10.0002C29.6874 9.68773 29.2635 9.51221 28.8216 9.51221C28.3797 9.51221 27.9558 9.68773 27.6433 10.0002L19.9999 17.6435L12.3566 10.0002C12.0441 9.68773 11.6202 9.51221 11.1783 9.51221C10.7363 9.51221 10.3125 9.68773 9.99994 10.0002C9.68749 10.3127 9.51196 10.7366 9.51196 11.1785C9.51196 11.6205 9.68749 12.0443 9.99994 12.3569L17.6433 20.0002L9.99994 27.6435C9.68749 27.9561 9.51196 28.3799 9.51196 28.8219C9.51196 29.2638 9.68749 29.6876 9.99994 30.0002C10.3125 30.3126 10.7363 30.4882 11.1783 30.4882C11.6202 30.4882 12.0441 30.3126 12.3566 30.0002L19.9999 22.3569L27.6433 30.0002C27.9558 30.3126 28.3797 30.4882 28.8216 30.4882C29.2635 30.4882 29.6874 30.3126 29.9999 30.0002C30.3124 29.6876 30.4879 29.2638 30.4879 28.8219C30.4879 28.3799 30.3124 27.9561 29.9999 27.6435L22.3566 20.0002L29.9999 12.3569C30.3124 12.0443 30.4879 11.6205 30.4879 11.1785C30.4879 10.7366 30.3124 10.3127 29.9999 10.0002V10.0002Z" fill="#646F7C"/>
</svg>
