<svg width="162" height="164" viewBox="0 0 162 164" fill="none" xmlns="http://www.w3.org/2000/svg">
<path d="M112.5 12.5H37.5C30.5964 12.5 25 18.0964 25 25V125C25 131.904 30.5964 137.5 37.5 137.5H112.5C119.404 137.5 125 131.904 125 125V25C125 18.0964 119.404 12.5 112.5 12.5Z" fill="#E7ECEF"/>
<path d="M65.5625 50H40.625C38.8991 50 37.5 51.3991 37.5 53.125V59.375C37.5 61.1009 38.8991 62.5 40.625 62.5H65.5625C67.2881 62.5 68.6875 61.1009 68.6875 59.375V53.125C68.6875 51.3991 67.2881 50 65.5625 50Z" fill="#C7CED5"/>
<path fill-rule="evenodd" clip-rule="evenodd" d="M93.7504 53.6607L108.081 39.3301L116.92 48.169L93.7504 71.3383L76.8311 54.419L85.6698 45.5801L93.7504 53.6607Z" fill="#48AFBA"/>
<path fill-rule="evenodd" clip-rule="evenodd" d="M93.7504 91.1617L108.081 76.8311L116.92 85.6698L93.7504 108.839L76.8311 91.9198L85.6698 83.0811L93.7504 91.1617Z" fill="#48AFBA"/>
<path d="M65.6237 87.5H40.686C38.9601 87.5 37.561 88.8994 37.561 90.625V97.0625C37.561 98.7881 38.9601 100.188 40.686 100.188H65.6237C67.3494 100.188 68.7487 98.7881 68.7487 97.0625V90.625C68.7487 88.8994 67.3494 87.5 65.6237 87.5Z" fill="#C7CED5"/>
<path d="M133.467 100.901L100.467 133.901L112.267 145.668L145.267 112.668L133.467 100.901Z" fill="#FFC738"/>
<path d="M97.8328 136.536L95.6328 143.169L102.933 150.469L109.633 148.302L112.266 145.669L100.466 133.902L97.8328 136.536Z" fill="#F0F0F0"/>
<path d="M92 154L102.933 150.467L95.6333 143.167L92 154Z" fill="#707070"/>
<path d="M149.968 98.5356L147.601 96.2024C146.352 94.9607 144.662 94.2637 142.901 94.2637C141.14 94.2637 139.45 94.9607 138.201 96.2024L133.468 100.902L145.268 112.702L149.968 107.969C150.588 107.35 151.079 106.615 151.415 105.805C151.75 104.996 151.923 104.128 151.923 103.252C151.923 102.376 151.75 101.509 151.415 100.699C151.079 99.89 150.588 99.1548 149.968 98.5356Z" fill="#F4868F"/>
</svg>
