<svg width="24" height="25" viewBox="0 0 24 25" fill="none" xmlns="http://www.w3.org/2000/svg">
<path d="M18.7098 8.70986C18.6169 8.61613 18.5063 8.54174 18.3844 8.49097C18.2625 8.4402 18.1318 8.41406 17.9998 8.41406C17.8678 8.41406 17.7371 8.4402 17.6152 8.49097C17.4934 8.54174 17.3828 8.61613 17.2898 8.70986L12.7098 13.2899C12.6169 13.3836 12.5063 13.458 12.3844 13.5087C12.2625 13.5595 12.1318 13.5856 11.9998 13.5856C11.8678 13.5856 11.7371 13.5595 11.6152 13.5087C11.4934 13.458 11.3828 13.3836 11.2898 13.2899L6.70982 8.70986C6.61685 8.61613 6.50625 8.54174 6.38439 8.49097C6.26253 8.4402 6.13183 8.41406 5.99982 8.41406C5.8678 8.41406 5.7371 8.4402 5.61524 8.49097C5.49338 8.54174 5.38278 8.61613 5.28982 8.70986C5.10356 8.89722 4.99902 9.15067 4.99902 9.41486C4.99902 9.67904 5.10356 9.9325 5.28982 10.1199L9.87982 14.7098C10.4423 15.2716 11.2048 15.5872 11.9998 15.5872C12.7948 15.5872 13.5573 15.2716 14.1198 14.7098L18.7098 10.1199C18.8961 9.9325 19.0006 9.67904 19.0006 9.41486C19.0006 9.15067 18.8961 8.89722 18.7098 8.70986Z" fill="#646F7C"/>
</svg>
