<svg width="28" height="28" viewBox="0 0 28 28" fill="none" xmlns="http://www.w3.org/2000/svg">
<g clip-path="url(#clip0_200_294)">
<path d="M16.8165 0H5.83348C4.90522 0 4.01498 0.368749 3.3586 1.02513C2.70223 1.6815 2.33348 2.57174 2.33348 3.5V28H25.6668V8.85033L16.8165 0ZM17.5001 3.983L21.6838 8.16667H17.5001V3.983ZM4.66681 25.6667V3.5C4.66681 3.19058 4.78973 2.89383 5.00852 2.67504C5.22731 2.45625 5.52406 2.33333 5.83348 2.33333H15.1668V10.5H23.3335V25.6667H4.66681ZM15.1668 12.8333H17.5001V15.1667H15.1668V20.4167C15.1668 20.9935 14.9958 21.5574 14.6753 22.0371C14.3548 22.5167 13.8993 22.8906 13.3663 23.1113C12.8334 23.3321 12.2469 23.3898 11.6811 23.2773C11.1154 23.1647 10.5957 22.887 10.1877 22.4791C9.77985 22.0712 9.50206 21.5515 9.38952 20.9857C9.27698 20.4199 9.33474 19.8335 9.55549 19.3005C9.77625 18.7676 10.1501 18.312 10.6297 17.9915C11.1094 17.6711 11.6733 17.5 12.2501 17.5C12.446 17.5004 12.6414 17.5199 12.8335 17.5583V15.1667C12.8335 14.5478 13.0793 13.9543 13.5169 13.5168C13.9545 13.0792 14.548 12.8333 15.1668 12.8333V12.8333Z" fill="#5362F6"/>
</g>
<defs>
<clipPath id="clip0_200_294">
<rect width="28" height="28" fill="white"/>
</clipPath>
</defs>
</svg>
