<svg width="28" height="29" viewBox="0 0 28 29" fill="none" xmlns="http://www.w3.org/2000/svg">
<g clip-path="url(#clip0_320_1657)">
<path d="M11.5248 21.6423C11.8498 21.9676 12.2357 22.2256 12.6605 22.4016C13.0853 22.5777 13.5406 22.6683 14.0004 22.6683C14.4602 22.6683 14.9156 22.5777 15.3403 22.4016C15.7651 22.2256 16.1511 21.9676 16.4761 21.6423L20.2223 17.8962C20.4231 17.674 20.5308 17.3832 20.5232 17.0838C20.5155 16.7844 20.393 16.4994 20.181 16.2879C19.969 16.0763 19.6837 15.9544 19.3844 15.9474C19.085 15.9403 18.7943 16.0487 18.5726 16.25L15.1589 19.6648L15.1671 1.66667C15.1671 1.35725 15.0442 1.0605 14.8254 0.841709C14.6066 0.622916 14.3098 0.5 14.0004 0.5V0.5C13.691 0.5 13.3943 0.622916 13.1755 0.841709C12.9567 1.0605 12.8338 1.35725 12.8338 1.66667L12.8233 19.6427L9.42826 16.25C9.20935 16.0312 8.9125 15.9084 8.60301 15.9085C8.29353 15.9086 7.99677 16.0317 7.77801 16.2506C7.55925 16.4695 7.43641 16.7663 7.43652 17.0758C7.43663 17.3853 7.55968 17.6821 7.77859 17.9008L11.5248 21.6423Z" fill="white"/>
<path d="M26.8333 19.166C26.5239 19.166 26.2272 19.2889 26.0084 19.5077C25.7896 19.7265 25.6667 20.0233 25.6667 20.3327V24.9993C25.6667 25.3088 25.5438 25.6055 25.325 25.8243C25.1062 26.0431 24.8094 26.166 24.5 26.166H3.5C3.19058 26.166 2.89383 26.0431 2.67504 25.8243C2.45625 25.6055 2.33333 25.3088 2.33333 24.9993V20.3327C2.33333 20.0233 2.21042 19.7265 1.99162 19.5077C1.77283 19.2889 1.47609 19.166 1.16667 19.166V19.166C0.857247 19.166 0.560501 19.2889 0.341709 19.5077C0.122916 19.7265 0 20.0233 0 20.3327L0 24.9993C0 25.9276 0.368749 26.8178 1.02513 27.4742C1.6815 28.1306 2.57174 28.4993 3.5 28.4993H24.5C25.4283 28.4993 26.3185 28.1306 26.9749 27.4742C27.6313 26.8178 28 25.9276 28 24.9993V20.3327C28 20.0233 27.8771 19.7265 27.6583 19.5077C27.4395 19.2889 27.1428 19.166 26.8333 19.166Z" fill="white"/>
</g>
<defs>
<clipPath id="clip0_320_1657">
<rect width="28" height="28" fill="white" transform="translate(0 0.5)"/>
</clipPath>
</defs>
</svg>
