<svg width="60" height="60" viewBox="0 0 60 60" fill="none" xmlns="http://www.w3.org/2000/svg">
<path d="M29.6875 23.3333C28.1342 23.3333 26.875 22.0275 26.875 20.4167C26.875 18.8058 28.1342 17.5 29.6875 17.5C31.2408 17.5 32.5 18.8058 32.5 20.4167C32.5 22.0275 31.2408 23.3333 29.6875 23.3333Z" fill="#5362F6"/>
<path d="M47.5 35H25L30.625 27.2222L32.5 29.1667L38.125 21.3889L47.5 35Z" fill="#5362F6"/>
<path fill-rule="evenodd" clip-rule="evenodd" d="M50 45H20C17.2386 45 15 42.7614 15 40V10C15 7.23858 17.2386 5 20 5H50C52.7614 5 55 7.23858 55 10V40C55 42.7614 52.7614 45 50 45ZM20 10V40H50V10H20Z" fill="#5362F6"/>
<path d="M10 20H5V50C5 52.7614 7.23858 55 10 55H40V50H10V20Z" fill="#5362F6"/>
</svg>
