<svg width="24" height="25" viewBox="0 0 24 25" fill="none" xmlns="http://www.w3.org/2000/svg">
<path d="M22 11.5C22 5.97715 17.5228 1.5 12 1.5C6.47715 1.5 2 5.97715 2 11.5C2 17.0228 6.47715 21.5 12 21.5C17.5228 21.5 22 17.0228 22 11.5Z" fill="#7681F8"/>
<path d="M5 18.6406L2 21.5006H12V19.5006L5 18.6406Z" fill="#7681F8"/>
<path d="M14.5 12.5H7.5C7.22386 12.5 7 12.7239 7 13V14C7 14.2761 7.22386 14.5 7.5 14.5H14.5C14.7761 14.5 15 14.2761 15 14V13C15 12.7239 14.7761 12.5 14.5 12.5Z" fill="white"/>
<path d="M16.5 8.5H7.5C7.22386 8.5 7 8.72386 7 9V10C7 10.2761 7.22386 10.5 7.5 10.5H16.5C16.7761 10.5 17 10.2761 17 10V9C17 8.72386 16.7761 8.5 16.5 8.5Z" fill="white"/>
</svg>
