<svg width="36" height="36" viewBox="0 0 36 36" fill="none" xmlns="http://www.w3.org/2000/svg">
<g clip-path="url(#clip0_102_889)">
<path d="M33 19.5C32.996 23.0792 31.5724 26.5107 29.0416 29.0415C26.5107 31.5724 23.0792 32.996 19.5 33H16.5C12.9209 32.9956 9.48968 31.5719 6.95888 29.0411C4.42809 26.5103 3.00437 23.0791 3 19.5H0C0.00516071 23.8745 1.74521 28.0683 4.83844 31.1615C7.93167 34.2548 12.1255 35.9948 16.5 36H19.5C23.8745 35.9948 28.0683 34.2548 31.1616 31.1615C34.2548 28.0683 35.9948 23.8745 36 19.5H33Z"/>
<path d="M13.5 19.5005H7.6065C7.96541 22.0012 9.2139 24.2887 11.123 25.9433C13.032 27.5979 15.4737 28.5088 18 28.5088C20.5263 28.5088 22.968 27.5979 24.877 25.9433C26.7861 24.2887 28.0346 22.0012 28.3935 19.5005H22.5V16.5005H28.5V12.0005H22.5V9.00049H28.3935C28.0346 6.49978 26.7861 4.21232 24.877 2.55768C22.968 0.903045 20.5263 -0.0078125 18 -0.0078125C15.4737 -0.0078125 13.032 0.903045 11.123 2.55768C9.2139 4.21232 7.96541 6.49978 7.6065 9.00049H13.5V12.0005H7.5V16.5005H13.5V19.5005Z"/>
</g>
<defs>
<clipPath id="clip0_102_889">
<rect width="36" height="36" fill="white"/>
</clipPath>
</defs>
</svg>
