<svg width="100" height="100" viewBox="0 0 100 100" fill="none" xmlns="http://www.w3.org/2000/svg">
<path d="M75 91.667H25C20.3977 91.667 16.6667 87.9361 16.6667 83.3337V16.667C16.6667 12.0647 20.3977 8.33371 25 8.33371H54.1667C54.204 8.32887 54.2419 8.32887 54.2792 8.33371H54.3042C54.3435 8.34603 54.384 8.35441 54.425 8.35871C54.7925 8.38226 55.1553 8.4537 55.5042 8.57121H55.5667H55.6292H55.6792C55.7561 8.62507 55.8285 8.68498 55.8959 8.75038C56.3498 8.95214 56.7634 9.23448 57.1167 9.58371L82.1167 34.5837C82.4659 34.937 82.7483 35.3506 82.95 35.8045C82.9875 35.8962 83.0167 35.9837 83.0459 36.0795L83.0875 36.1962C83.2039 36.5437 83.2725 36.9053 83.2917 37.2712C83.2953 37.3127 83.3052 37.3534 83.3209 37.392V37.417C83.3277 37.4444 83.3319 37.4723 83.3334 37.5004V83.3337C83.3334 85.5438 82.4554 87.6635 80.8926 89.2263C79.3298 90.7891 77.2102 91.667 75 91.667ZM37.5 66.667L25 83.3337H75L54.1667 54.167L41.6667 70.8337L37.5 66.667ZM35.4167 45.8337C32.0083 45.8383 29.232 48.573 29.176 51.981C29.12 55.3889 31.8048 58.2134 35.2112 58.33C38.6177 58.4467 41.4895 55.8125 41.6667 52.4087V53.617V52.0837C41.6667 48.6319 38.8685 45.8337 35.4167 45.8337ZM54.1667 16.667V37.5004H75L54.1667 16.667Z"/>
</svg>
