<svg width="100" height="100" viewBox="0 0 100 100" fill="none" xmlns="http://www.w3.org/2000/svg">
<path d="M75 91.6661H25C20.3976 91.6661 16.6667 87.9351 16.6667 83.3327V16.6661C16.6667 12.0637 20.3976 8.33273 25 8.33273H54.1667C54.204 8.32789 54.2418 8.32789 54.2792 8.33273H54.3042C54.3435 8.34506 54.384 8.35343 54.425 8.35773C54.7924 8.38129 55.1552 8.45273 55.5042 8.57023H55.5667H55.6292H55.6792C55.756 8.62409 55.8285 8.684 55.8958 8.7494C56.3498 8.95116 56.7634 9.2335 57.1167 9.58273L82.1167 34.5827C82.4659 34.936 82.7482 35.3496 82.95 35.8036C82.9875 35.8952 83.0167 35.9827 83.0458 36.0786L83.0875 36.1952C83.2038 36.5427 83.2725 36.9043 83.2917 37.2702C83.2953 37.3117 83.3051 37.3525 83.3208 37.3911V37.4161C83.3277 37.4434 83.3319 37.4713 83.3333 37.4994V83.3327C83.3333 85.5429 82.4554 87.6625 80.8926 89.2253C79.3298 90.7881 77.2101 91.6661 75 91.6661ZM54.1667 16.6661V37.4994H75L54.1667 16.6661Z" />
<g clip-path="url(#clip0_179_314)">
<path d="M57.2968 59.8168C56.8555 59.4507 56.3389 59.1862 55.7838 59.0422C55.2287 58.8982 54.6487 58.8781 54.085 58.9835L46.1093 60.4783C45.0149 60.6836 44.0266 61.265 43.3155 62.1219C42.6044 62.9789 42.2152 64.0574 42.2152 65.171V72.9271C41.9323 72.8496 41.6406 72.8084 41.3472 72.8047C40.6604 72.8047 39.9891 73.0083 39.4181 73.3899C38.8471 73.7714 38.4021 74.3137 38.1393 74.9481C37.8765 75.5826 37.8077 76.2808 37.9417 76.9543C38.0757 77.6278 38.4064 78.2465 38.892 78.7321C39.3776 79.2177 39.9962 79.5484 40.6698 79.6824C41.3433 79.8164 42.0415 79.7476 42.6759 79.4848C43.3104 79.222 43.8527 78.777 44.2342 78.206C44.6158 77.635 44.8194 76.9636 44.8194 76.2769V69.3325C44.8195 69.0287 44.9257 68.7346 45.1198 68.501C45.3138 68.2673 45.5834 68.1088 45.8819 68.0529L55.5894 66.23C55.652 66.2166 55.717 66.218 55.779 66.234C55.8411 66.2499 55.8986 66.2801 55.947 66.322C55.9965 66.363 56.0363 66.4145 56.0634 66.4728C56.0906 66.531 56.1045 66.5946 56.1041 66.6588V70.3229C55.404 70.1433 54.6653 70.1871 53.9914 70.4482C53.3174 70.7092 52.7419 71.1745 52.3455 71.7788C51.9491 72.3832 51.7515 73.0963 51.7805 73.8185C51.8095 74.5407 52.0636 75.2357 52.5072 75.8063C52.9508 76.3769 53.5617 76.7946 54.2544 77.0008C54.9472 77.207 55.687 77.1914 56.3704 76.9562C57.0539 76.7211 57.6467 76.2781 58.0659 75.6894C58.4851 75.1006 58.7097 74.3955 58.7083 73.6727V62.822C58.7089 62.2481 58.5827 61.6811 58.3387 61.1615C58.0947 60.642 57.739 60.1828 57.2968 59.8168ZM55.1102 63.6719L45.4019 65.493C45.2038 65.5327 45.0091 65.5875 44.8194 65.6571V65.171C44.8194 64.6649 44.9964 64.1747 45.3196 63.7852C45.6428 63.3958 46.0919 63.1315 46.5894 63.0382L54.5625 61.5434C54.7504 61.5082 54.9438 61.5149 55.1288 61.5628C55.3139 61.6108 55.4861 61.699 55.6333 61.821C55.7804 61.9431 55.8989 62.096 55.9803 62.269C56.0617 62.442 56.104 62.6309 56.1041 62.822V63.6693C55.7749 63.6159 55.4392 63.6168 55.1102 63.6719Z" fill="white"/>
</g>
<defs>
<clipPath id="clip0_179_314">
<rect width="20.8333" height="20.8333" fill="white" transform="translate(37.875 58.917)"/>
</clipPath>
</defs>
</svg>
