<svg width="124" height="124" viewBox="0 0 124 124" fill="none" xmlns="http://www.w3.org/2000/svg">
<g clip-path="url(#clip0_40_613)">
<path d="M96.9322 95.7765L48.6359 108.717C44.1904 109.909 39.6209 107.27 38.4297 102.825L21.1751 38.4298C19.984 33.9843 22.6221 29.4148 27.0677 28.2236L55.2405 20.6747C55.2754 20.6604 55.3119 20.6506 55.3492 20.6456L55.3733 20.6392C55.4145 20.6409 55.4558 20.6385 55.4965 20.632C55.8576 20.5597 56.2265 20.5348 56.5939 20.558L56.6543 20.5418L56.7147 20.5256L56.763 20.5127C56.8512 20.5448 56.9367 20.5839 57.0186 20.6297C57.5093 20.7071 57.9819 20.8727 58.4135 21.1186L89.0322 38.7963C89.4609 39.0472 89.8407 39.3736 90.1531 39.7599C90.213 39.8387 90.2638 39.9157 90.3168 40.0007L90.3873 40.1026C90.5895 40.4081 90.7495 40.7396 90.8627 41.0881C90.8769 41.1273 90.897 41.1641 90.9221 41.1973L90.9286 41.2214C90.9423 41.246 90.9536 41.2719 90.9623 41.2987L102.825 85.5703C103.397 87.7051 103.097 89.9797 101.992 91.8938C100.887 93.8078 99.0671 95.2045 96.9322 95.7765ZM78.4122 66.2297C76.6015 66.6168 75.114 67.9021 74.4682 69.6375C73.8294 71.8114 73.8723 74.1289 74.591 76.2778L75.5357 79.8034C76.0012 81.994 77.1661 83.9739 78.8548 85.4449C80.3447 86.5467 82.2748 86.8616 84.0377 86.2906C85.1331 86.0095 86.1597 85.5084 87.0552 84.8178L87.13 84.7589C87.9462 84.1016 88.59 83.2555 89.0059 82.2936L86.8393 74.208L80.9271 75.7922L81.7272 78.7785L84.142 78.1314L85.1051 81.7255L84.8639 82.0489C84.4616 82.5113 83.922 82.8327 83.3238 82.9663C82.4042 83.2836 81.3842 83.0565 80.6861 82.379C79.8146 81.2998 79.2172 80.0258 78.9449 78.6656L77.9926 75.1118C77.5853 73.854 77.4712 72.5197 77.6592 71.211C77.8438 70.3466 78.52 69.6718 79.3848 69.4891C80.0151 69.2644 80.7145 69.3504 81.2717 69.7211C81.9317 70.3701 82.4037 71.1857 82.6374 72.0814L86.0262 71.1734C85.5606 69.3866 84.5147 67.8051 83.0529 66.6772C81.6465 65.8593 79.9533 65.6955 78.4163 66.2286L78.4122 66.2297ZM63.158 77.8487L71.662 89.3177L75.1112 88.3935L69.8636 68.8093L66.4225 69.7314L69.868 82.5903L61.3393 71.0934L57.87 72.023L63.1176 91.6071L66.5869 90.6775L63.15 77.8509L63.158 77.8487ZM44.1056 75.7112L49.3531 95.2953L52.8224 94.3657L50.9773 87.4795L53.2915 86.8594C54.8754 86.5225 56.231 85.5061 56.9985 84.0802C57.7111 82.5243 57.812 80.7571 57.2811 79.1301C56.9003 77.416 55.9127 75.8974 54.5005 74.8541C53.1776 73.9271 51.5003 73.6646 49.9575 74.1432L44.1056 75.7112ZM57.3974 28.7241L62.7894 48.8476L82.9129 43.4555L57.3974 28.7241ZM52.4734 83.5328L50.0908 84.1712L48.457 78.0738L50.8718 77.4267C51.4939 77.2708 52.152 77.4576 52.5993 77.9172C53.1918 78.5158 53.6008 79.2713 53.778 80.0946C54.0296 80.8385 54.0414 81.6425 53.8116 82.3934C53.5834 82.9726 53.0816 83.3999 52.4734 83.5328Z"/>
</g>
<defs>
<clipPath id="clip0_40_613">
<rect width="100" height="100" fill="white" transform="translate(0.762726 26.6445) rotate(-15)"/>
</clipPath>
</defs>
</svg>
