<svg width="124" height="124" viewBox="0 0 124 124" fill="none" xmlns="http://www.w3.org/2000/svg">
<g clip-path="url(#clip0_40_614)">
<path d="M75.364 108.717L27.0678 95.7762C22.6222 94.585 19.984 90.0156 21.1752 85.57L38.4298 21.175C39.621 16.7294 44.1905 14.0912 48.636 15.2824L76.8088 22.8313C76.8462 22.8363 76.8827 22.8461 76.9175 22.8604L76.9417 22.8669C76.9765 22.889 77.0134 22.9075 77.0519 22.9223C77.4007 23.0402 77.7327 23.2031 78.0393 23.4069L78.2083 23.4522C78.2687 23.5241 78.3231 23.6007 78.3712 23.6813C78.7575 23.9937 79.084 24.3735 79.3348 24.8022L97.0125 55.4208C97.2584 55.8525 97.424 56.3251 97.5014 56.8158C97.5139 56.914 97.5195 57.0061 97.5228 57.1062L97.5329 57.2297C97.5553 57.5954 97.5281 57.9625 97.4519 58.3209C97.4446 58.3619 97.4436 58.4038 97.4488 58.4451L97.4423 58.4693C97.4418 58.4974 97.4386 58.5255 97.4328 58.553L85.5703 102.825C84.9982 104.959 83.6016 106.78 81.6875 107.885C79.7735 108.99 77.4989 109.289 75.364 108.717ZM73.7727 73.7816C71.9421 73.1803 69.9328 73.5217 68.4036 74.6939C66.711 76.2196 65.5534 78.2488 65.1013 80.4822L64.1566 84.0078C63.4588 86.1517 63.5118 88.4692 64.3068 90.579C65.1372 92.3134 66.7253 93.5644 68.606 93.9654C69.7538 94.2858 70.9526 94.3814 72.1367 94.2472L72.1689 94.2558L72.1447 94.2493C72.1879 94.2373 72.232 94.2289 72.2766 94.2242L72.2967 94.2296L72.3697 94.2147L72.465 94.1971C73.4518 94.0283 74.3901 93.6468 75.2147 93.079L77.3834 84.9854L71.1693 83.3203L70.3691 86.3066L72.9329 86.9936L71.9698 90.5876L71.5832 90.7428C70.971 90.9354 70.3145 90.9356 69.7022 90.7435C68.7073 90.5593 67.8936 89.8444 67.5828 88.8815C67.3351 87.5118 67.4412 86.1015 67.8912 84.7842L68.8435 81.2304C69.1163 79.9329 69.6972 78.72 70.5373 77.6942C71.1774 77.0383 72.136 76.806 73.0054 77.0959C73.6923 77.22 74.2852 77.6504 74.616 78.2651C74.892 79.1548 74.9069 80.1049 74.6589 81.0028L78.2208 81.9572C78.7097 80.1611 78.5615 78.2511 77.8012 76.552C76.9056 75.1071 75.4422 74.1018 73.7727 73.7816ZM35.9453 78.7435C35.4317 80.3146 35.5021 82.0183 36.1435 83.5417C36.8329 84.8993 38.0988 85.8726 39.588 86.19C41.0371 86.6158 42.6013 86.3566 43.8357 85.4863C45.2103 84.4639 46.1678 82.978 46.5308 81.3038L50.164 67.7447L46.4895 66.7601L42.907 80.1301C42.3376 82.2551 41.509 83.2064 40.4344 82.9185C39.3598 82.6305 39.1029 81.5609 39.5957 79.7216L35.9453 78.7435ZM53.0333 68.5307L47.7858 88.1149L51.4482 89.0962L53.2977 82.1939L55.7407 82.8485C57.3487 83.3758 59.1048 83.1975 60.5741 82.3577C62.0101 81.4016 63.014 79.9206 63.3704 78.2326C63.8994 76.5433 63.7728 74.7166 63.0158 73.1165C62.25 71.6164 60.8553 70.5358 59.2115 70.1689L53.0333 68.5307ZM74.652 30.8807L69.26 51.0041L89.3834 56.3962L74.652 30.8807ZM56.6996 79.5596L54.1842 78.8856L55.818 72.7882L58.3736 73.473C59.0154 73.6478 59.5198 74.1442 59.7049 74.783C59.9422 75.5958 59.9297 76.4611 59.6692 77.2667C59.5155 78.0411 59.1121 78.7437 58.5208 79.2668C57.9968 79.6532 57.3183 79.7623 56.6996 79.5596Z" />
</g>
<defs>
<clipPath id="clip0_40_614">
<rect width="100" height="100" fill="white" transform="translate(26.6447 0.762695) rotate(15)"/>
</clipPath>
</defs>
</svg>
