<svg width="124" height="124" viewBox="0 0 124 124" fill="none" xmlns="http://www.w3.org/2000/svg">
<g clip-path="url(#clip0_179_312)">
<path d="M96.9321 95.7755L48.6358 108.716C44.1903 109.908 39.6208 107.269 38.4296 102.824L21.175 38.4289C19.9838 33.9833 22.622 29.4138 27.0675 28.2227L55.2404 20.6738C55.2752 20.6594 55.3117 20.6496 55.3491 20.6447L55.3732 20.6382C55.4144 20.6399 55.4557 20.6375 55.4964 20.6311C55.8574 20.5587 56.2263 20.5338 56.5938 20.557L56.6542 20.5408L56.7145 20.5247L56.7628 20.5117C56.851 20.5438 56.9365 20.583 57.0185 20.6287C57.5092 20.7061 57.9818 20.8718 58.4134 21.1177L89.032 38.7953C89.4608 39.0462 89.8405 39.3726 90.1529 39.7589C90.2129 39.8377 90.2637 39.9147 90.3167 39.9997L90.3871 40.1016C90.5894 40.4071 90.7493 40.7387 90.8626 41.0871C90.8768 41.1263 90.8968 41.1631 90.922 41.1963L90.9285 41.2205C90.9421 41.2451 90.9534 41.2709 90.9621 41.2977L102.825 85.5693C103.397 87.7042 103.097 89.9788 101.992 91.8928C100.887 93.8069 99.0669 95.2035 96.9321 95.7755ZM57.3972 28.7232L62.7893 48.8466L82.9127 43.4545L57.3972 28.7232Z"/>
<path d="M44.1051 75.7092L48.196 74.6131L54.9159 85.8108L55.076 85.7679L55.2967 72.7104L59.3876 71.6143L64.6362 91.2021L61.4195 92.064L58.1955 80.032L58.0821 80.0624L57.9893 92.8499L55.9338 93.4006L49.4418 82.3058L49.3284 82.3362L52.5703 94.4352L49.3536 95.2971L44.1051 75.7092Z" fill="white"/>
<path d="M66.6967 90.65L61.4481 71.0622L67.094 69.5493C68.1173 69.2752 69.0773 69.3255 69.974 69.7002C70.8735 70.0674 71.6624 70.7069 72.3406 71.6186C73.0172 72.524 73.5357 73.6493 73.8962 74.9947C74.2584 76.3465 74.3684 77.5847 74.2263 78.7094C74.0869 79.8265 73.7112 80.7644 73.099 81.523C72.4869 82.2816 71.658 82.8009 70.6125 83.0811L67.1289 84.0145L66.1294 80.2844L68.999 79.5155C69.4973 79.382 69.88 79.1462 70.1471 78.8081C70.4186 78.4688 70.5813 78.0528 70.6352 77.5599C70.6874 77.0607 70.6332 76.5114 70.4726 75.9121C70.3103 75.3063 70.0834 74.8067 69.792 74.4132C69.4989 74.0134 69.1508 73.7376 68.7478 73.5859C68.3447 73.4342 67.8963 73.4245 67.4024 73.5569L65.7741 73.9932L70.0001 89.7649L66.6967 90.65Z" fill="white"/>
<path d="M84.1999 86.2471C83.1588 86.526 82.1673 86.5183 81.2253 86.224C80.2861 85.9221 79.4638 85.3804 78.7585 84.599C78.0532 83.8176 77.538 82.8382 77.2131 81.661L80.5365 80.7705C80.6644 81.1941 80.8617 81.5479 81.1285 81.8317C81.3936 82.1093 81.7044 82.2993 82.0609 82.402C82.4174 82.5046 82.7915 82.5035 83.183 82.3986C83.5745 82.2937 83.8928 82.1025 84.1379 81.8249C84.3858 81.5398 84.5473 81.1993 84.6224 80.8033C84.6958 80.4009 84.6687 79.9708 84.5413 79.5129C84.4227 79.0526 84.2222 78.669 83.9396 78.362C83.6571 78.055 83.318 77.8485 82.9225 77.7427C82.5314 77.6356 82.1045 77.6441 81.6418 77.768L80.3138 78.1239L79.4117 74.7572L80.7397 74.4014C81.1446 74.2929 81.4749 74.1019 81.7306 73.8283C81.9908 73.5536 82.1615 73.2208 82.2428 72.83C82.3223 72.4328 82.2992 72.0085 82.1735 71.5569C82.06 71.1158 81.8832 70.7497 81.6431 70.4587C81.4058 70.1601 81.1288 69.9541 80.8123 69.8407C80.5003 69.7261 80.1708 69.7153 79.8237 69.8083C79.4589 69.9061 79.1522 70.0873 78.9037 70.3521C78.6596 70.6157 78.4961 70.9397 78.4131 71.3242C78.3301 71.7086 78.344 72.1252 78.4547 72.5739L75.2981 73.4197C74.9943 72.2505 74.9462 71.1631 75.1536 70.1576C75.3593 69.1457 75.7773 68.2854 76.4076 67.5766C77.0423 66.8666 77.8513 66.3799 78.8345 66.1165C79.8133 65.8542 80.74 65.869 81.6145 66.1609C82.4891 66.4528 83.2468 66.9673 83.8878 67.7045C84.5271 68.4353 84.9894 69.3331 85.2748 70.3979C85.5748 71.4998 85.5669 72.4758 85.251 73.3258C84.9396 74.1747 84.4102 74.7881 83.6627 75.1661L83.7037 75.3191C84.8104 75.2139 85.7406 75.4909 86.4942 76.1501C87.2522 76.808 87.7905 77.7402 88.1089 78.9465C88.4131 80.0814 88.4494 81.1515 88.218 82.1566C87.9894 83.1541 87.5288 84.0156 86.8363 84.7411C86.1464 85.459 85.2676 85.961 84.1999 86.2471Z" fill="white"/>
</g>
<defs>
<clipPath id="clip0_179_312">
<rect width="100" height="100" fill="white" transform="translate(0.762695 26.6445) rotate(-15)"/>
</clipPath>
</defs>
</svg>
