<svg width="124" height="124" viewBox="0 0 124 124" fill="none" xmlns="http://www.w3.org/2000/svg">
<g clip-path="url(#clip0_179_313)">
<path d="M75.3641 108.717L27.0678 95.7762C22.6223 94.585 19.9841 90.0156 21.1753 85.57L38.4299 21.175C39.6211 16.7294 44.1905 14.0912 48.6361 15.2824L76.8089 22.8313C76.8462 22.8363 76.8828 22.8461 76.9176 22.8604L76.9417 22.8669C76.9766 22.889 77.0135 22.9075 77.052 22.9223C77.4008 23.0402 77.7327 23.2031 78.0394 23.4069L78.0998 23.423L78.1601 23.4392L78.2084 23.4522C78.2687 23.5241 78.3232 23.6007 78.3713 23.6813C78.7576 23.9937 79.084 24.3734 79.3349 24.8022L97.0125 55.4208C97.2584 55.8525 97.4241 56.3251 97.5015 56.8158C97.514 56.914 97.5195 57.0061 97.5229 57.1062L97.533 57.2297C97.5554 57.5954 97.5281 57.9625 97.4519 58.3209C97.4447 58.3619 97.4436 58.4038 97.4488 58.4451L97.4424 58.4693C97.4419 58.4974 97.4387 58.5255 97.4329 58.553L85.5703 102.825C84.9983 104.959 83.6016 106.78 81.6876 107.885C79.7736 108.99 77.4989 109.289 75.3641 108.717ZM74.6521 30.8807L69.26 51.0041L89.3835 56.3962L74.6521 30.8807Z" />
<path d="M37.8923 85.7358L39.7197 64.6572L42.9913 65.5338L41.3061 79.2154L41.4078 79.2426L47.0523 66.622L49.7198 67.3367L48.2898 81.1183L48.3915 81.1455L53.7868 68.4265L57.0523 69.3015L48.1016 88.4714L45.2488 87.707L46.3118 74.9119L46.2161 74.8862L40.7392 86.4986L37.8923 85.7358Z" fill="white"/>
<path d="M54.2007 90.1056L51.0188 89.2531L60.5437 70.237L64.4851 71.2931L63.2258 92.5239L60.044 91.6714L61.2007 75.8472L61.105 75.8216L54.2007 90.1056ZM55.8981 82.0722L62.5488 83.8542L61.5589 87.5488L54.9081 85.7667L55.8981 82.0722Z" fill="white"/>
<path d="M71.073 73.0583L69.863 88.5312L69.9647 88.5584L76.6532 74.5535L79.9666 75.4414L70.4418 94.4574L66.5004 93.4013L67.7596 72.1705L71.073 73.0583Z" fill="white"/>
</g>
<defs>
<clipPath id="clip0_179_313">
<rect width="100" height="100" fill="white" transform="translate(26.6447 0.762695) rotate(15)"/>
</clipPath>
</defs>
</svg>
