<svg width="36" height="36" viewBox="0 0 36 36" fill="none" xmlns="http://www.w3.org/2000/svg">
<g clip-path="url(#clip0_88_381)">
<path d="M19.4999 16.4996C19.4999 17.0929 19.324 17.673 18.9943 18.1663C18.6647 18.6597 18.1962 19.0442 17.648 19.2712C17.0998 19.4983 16.4966 19.5577 15.9147 19.442C15.3327 19.3262 14.7982 19.0405 14.3786 18.6209C13.959 18.2014 13.6733 17.6668 13.5576 17.0849C13.4418 16.5029 13.5012 15.8997 13.7283 15.3516C13.9553 14.8034 14.3399 14.3348 14.8332 14.0052C15.3266 13.6755 15.9066 13.4996 16.4999 13.4996C17.2956 13.4996 18.0586 13.8157 18.6212 14.3783C19.1839 14.9409 19.4999 15.704 19.4999 16.4996ZM35.9999 19.4996C36.0083 19.8959 35.9364 20.2897 35.7886 20.6575C35.6408 21.0253 35.4202 21.3593 35.1399 21.6396C34.8596 21.9199 34.5256 22.1405 34.1578 22.2883C33.7901 22.4361 33.3962 22.508 32.9999 22.4996H32.5049L32.1764 24.9821C31.9339 26.7836 31.0471 28.4363 29.6802 29.6344C28.3133 30.8326 26.5586 31.4952 24.7409 31.4996H23.9999C23.9999 32.6931 23.5258 33.8377 22.6819 34.6816C21.838 35.5255 20.6934 35.9996 19.4999 35.9996H8.99992C7.80645 35.9996 6.66186 35.5255 5.81794 34.6816C4.97403 33.8377 4.49992 32.6931 4.49992 31.4996V30.0431C4.52369 28.7763 4.13402 27.5362 3.38992 26.5106C2.06173 24.7849 1.08851 22.8132 0.52646 20.7093C-0.0355917 18.6054 -0.175346 16.411 0.115265 14.2528C0.405876 12.0946 1.1211 10.0154 2.21964 8.13512C3.31817 6.25485 4.77827 4.61079 6.51564 3.29786C8.253 1.98493 10.2332 1.02913 12.342 0.485651C14.4507 -0.0578297 16.6463 -0.178232 18.8018 0.131394C20.9573 0.441021 23.0302 1.17454 24.9007 2.28962C26.7712 3.40469 28.4024 4.87923 29.6999 6.6281C31.6019 8.9771 35.9999 17.3696 35.9999 19.4996ZM22.2614 14.9201L23.7509 14.0636C24.0958 13.8647 24.3476 13.5369 24.4508 13.1524C24.5541 12.7678 24.5003 12.358 24.3014 12.0131C24.1025 11.6682 23.7747 11.4164 23.3902 11.3132C23.0056 11.2099 22.5958 11.2637 22.2509 11.4626L20.7779 12.3086C20.014 11.5343 19.0536 10.9825 17.9999 10.7126V8.9996C17.9999 8.60178 17.8419 8.22025 17.5606 7.93894C17.2793 7.65764 16.8977 7.4996 16.4999 7.4996C16.1021 7.4996 15.7206 7.65764 15.4393 7.93894C15.158 8.22025 14.9999 8.60178 14.9999 8.9996V10.7126C13.9446 10.9818 12.9826 11.5336 12.2174 12.3086L10.7444 11.4626C10.5736 11.3641 10.3851 11.3002 10.1897 11.2746C9.99418 11.2489 9.79557 11.2621 9.60516 11.3132C9.41475 11.3643 9.23628 11.4524 9.07993 11.5725C8.92358 11.6926 8.79241 11.8423 8.69392 12.0131C8.59543 12.1839 8.53154 12.3724 8.5059 12.5679C8.48027 12.7633 8.49338 12.962 8.5445 13.1524C8.59562 13.3428 8.68374 13.5212 8.80383 13.6776C8.92393 13.8339 9.07364 13.9651 9.24442 14.0636L10.7339 14.9201C10.5848 15.4336 10.5061 15.9649 10.4999 16.4996C10.5075 17.0345 10.5878 17.5658 10.7384 18.0791L9.24892 18.9356C8.90401 19.1345 8.65224 19.4623 8.549 19.8468C8.44576 20.2314 8.49951 20.6412 8.69842 20.9861C8.89733 21.331 9.22512 21.5828 9.60966 21.686C9.9942 21.7893 10.404 21.7355 10.7489 21.5366L12.2219 20.6906C12.9859 21.4649 13.9462 22.0167 14.9999 22.2866V23.9996C14.9999 24.3974 15.158 24.779 15.4393 25.0603C15.7206 25.3416 16.1021 25.4996 16.4999 25.4996C16.8977 25.4996 17.2793 25.3416 17.5606 25.0603C17.8419 24.779 17.9999 24.3974 17.9999 23.9996V22.2866C19.0553 22.0174 20.0172 21.4656 20.7824 20.6906L22.2554 21.5366C22.4262 21.6351 22.6147 21.699 22.8102 21.7246C23.0057 21.7503 23.2043 21.7371 23.3947 21.686C23.5851 21.6349 23.7636 21.5468 23.9199 21.4267C24.0763 21.3066 24.2074 21.1569 24.3059 20.9861C24.4044 20.8153 24.4683 20.6268 24.4939 20.4313C24.5196 20.2359 24.5065 20.0372 24.4553 19.8468C24.4042 19.6564 24.3161 19.478 24.196 19.3216C24.0759 19.1653 23.9262 19.0341 23.7554 18.9356L22.2659 18.0791C22.4151 17.5656 22.4938 17.0343 22.4999 16.4996C22.4923 15.9647 22.4121 15.4334 22.2614 14.9201V14.9201Z" />
</g>
<defs>
<clipPath id="clip0_88_381">
<rect width="36" height="36" fill="white"/>
</clipPath>
</defs>
</svg>
