<svg width="32" height="32" viewBox="0 0 32 32" fill="none" xmlns="http://www.w3.org/2000/svg">
<path d="M13.9466 13.333H17.9466C19.7146 13.333 21.4104 14.0354 22.6606 15.2855C23.9109 16.5358 24.6133 18.2315 24.6133 19.9997V27.9997C24.6133 28.7069 24.3322 29.3851 23.8322 29.8853C23.3321 30.3854 22.6538 30.6663 21.9466 30.6663H9.94657C9.23933 30.6663 8.56105 30.3854 8.06096 29.8853C7.56085 29.3851 7.27991 28.7069 7.27991 27.9997V19.9997C7.27991 18.2315 7.98228 16.5358 9.23252 15.2855C10.4828 14.0354 12.1785 13.333 13.9466 13.333Z" fill="#C7CED5"/>
<path d="M16 11.9997C18.9454 11.9997 21.3333 9.61186 21.3333 6.66634C21.3333 3.72082 18.9454 1.33301 16 1.33301C13.0544 1.33301 10.6666 3.72082 10.6666 6.66634C10.6666 9.61186 13.0544 11.9997 16 11.9997Z" fill="#C7CED5"/>
<path d="M23.3333 29.3333C25.9106 29.3333 28 27.244 28 24.6667C28 22.0893 25.9106 20 23.3333 20C20.756 20 18.6666 22.0893 18.6666 24.6667C18.6666 27.244 20.756 29.3333 23.3333 29.3333Z" fill="#6B758F"/>
<path d="M23.3334 26.667C24.4379 26.667 25.3334 25.7715 25.3334 24.667C25.3334 23.5625 24.4379 22.667 23.3334 22.667C22.2288 22.667 21.3334 23.5625 21.3334 24.667C21.3334 25.7715 22.2288 26.667 23.3334 26.667Z" fill="white"/>
<path d="M25.026 18.6797H21.6926V21.3464H25.026V18.6797Z" fill="#6B758F"/>
<path d="M19.0065 20.2158L17.3398 23.1025L19.6492 24.4358L21.3158 21.5492L19.0065 20.2158Z" fill="#6B758F"/>
<path d="M17.3164 26.2054L18.9831 29.0921L21.2925 27.7587L19.6259 24.8721L17.3164 26.2054Z" fill="#6B758F"/>
<path d="M21.6393 30.654H24.9726V27.9873H21.6393V30.654Z" fill="#6B758F"/>
<path d="M27.6693 29.1342L29.336 26.2474L27.0265 24.9141L25.3599 27.8009L27.6693 29.1342Z" fill="#6B758F"/>
<path d="M29.3593 23.1396L27.6926 20.2529L25.3833 21.5863L27.05 24.4729L29.3593 23.1396Z" fill="#6B758F"/>
</svg>
