<svg width="36" height="36" viewBox="0 0 36 36" fill="none" xmlns="http://www.w3.org/2000/svg">
<g clip-path="url(#clip0_92_624)">
<path d="M16.6831 18.8044C16.2652 18.3862 15.769 18.0545 15.2229 17.8282C14.6767 17.6018 14.0913 17.4854 13.5001 17.4854C12.9089 17.4854 12.3235 17.6018 11.7774 17.8282C11.2312 18.0545 10.735 18.3862 10.3171 18.8044L0.0571289 29.0644C0.19582 30.9455 1.03949 32.705 2.41944 33.9909C3.79938 35.2769 5.61389 35.9945 7.50013 36.0004H28.5001C29.9697 36.0001 31.4064 35.5654 32.6296 34.7509L16.6831 18.8044Z" fill="#5362F6"/>
<path d="M27 12C28.6568 12 30 10.6568 30 8.99999C30 7.34314 28.6568 6 27 6C25.3431 6 24 7.34314 24 8.99999C24 10.6568 25.3431 12 27 12Z" fill="#5362F6"/>
<path d="M28.5 0H7.5C5.51161 0.00238179 3.60534 0.793323 2.19933 2.19933C0.793323 3.60534 0.00238179 5.51161 0 7.5L0 24.879L8.196 16.683C8.89247 15.9864 9.71935 15.4337 10.6294 15.0567C11.5395 14.6797 12.5149 14.4856 13.5 14.4856C14.4851 14.4856 15.4605 14.6797 16.3706 15.0567C17.2807 15.4337 18.1075 15.9864 18.804 16.683L34.7505 32.6295C35.565 31.4063 35.9997 29.9696 36 28.5V7.5C35.9976 5.51161 35.2067 3.60534 33.8007 2.19933C32.3947 0.793323 30.4884 0.00238179 28.5 0V0ZM27 15C25.8133 15 24.6533 14.6481 23.6666 13.9888C22.6799 13.3295 21.9108 12.3925 21.4567 11.2961C21.0026 10.1997 20.8838 8.99334 21.1153 7.82946C21.3468 6.66557 21.9182 5.59647 22.7574 4.75736C23.5965 3.91824 24.6656 3.3468 25.8295 3.11529C26.9933 2.88378 28.1997 3.0026 29.2961 3.45672C30.3925 3.91085 31.3295 4.67988 31.9888 5.66658C32.6481 6.65327 33 7.81331 33 9C33 10.5913 32.3679 12.1174 31.2426 13.2426C30.1174 14.3679 28.5913 15 27 15Z" fill="#5362F6"/>
</g>
<defs>
<clipPath id="clip0_92_624">
<rect width="36" height="36" fill="white"/>
</clipPath>
</defs>
</svg>
