<svg width="60" height="60" viewBox="0 0 60 60" fill="none" xmlns="http://www.w3.org/2000/svg">
<path d="M45 55H15C12.2386 55 10 52.7615 10 50V10C10 7.23861 12.2386 5.00002 15 5.00002H32.5C33.1635 4.99768 33.8002 5.26154 34.2675 5.73253L49.2675 20.7325C49.7385 21.1998 50.0024 21.8365 50 22.5V50C50 52.7615 47.7614 55 45 55ZM15 10V50H41.465L35.05 43.585C33.5254 44.5042 31.7802 44.9932 30 45C25.403 45.0498 21.3512 41.9918 20.1386 37.5573C18.926 33.1228 20.858 28.4286 24.8406 26.1322C28.8233 23.8359 33.8538 24.5157 37.0841 27.7867C40.3144 31.0578 40.9311 36.0965 38.585 40.05L45 46.47V23.535L31.465 10H15ZM30 30C27.2386 30 25 32.2386 25 35C25 37.7615 27.2386 40 30 40C32.7614 40 35 37.7615 35 35C35 32.2386 32.7614 30 30 30Z" fill="#5362F6"/>
</svg>
