<svg width="56" height="56" viewBox="0 0 56 56" fill="none" xmlns="http://www.w3.org/2000/svg">
<g clip-path="url(#clip0_111_256)">
<path d="M27.9996 46.6667C32.9486 46.6611 37.6933 44.6927 41.1928 41.1932C44.6923 37.6937 46.6607 32.949 46.6663 28V18.6667C46.6663 13.716 44.6996 8.96802 41.1989 5.46734C37.6983 1.96666 32.9503 0 27.9996 0C23.0489 0 18.301 1.96666 14.8003 5.46734C11.2996 8.96802 9.33295 13.716 9.33295 18.6667V28C9.33851 32.949 11.307 37.6937 14.8064 41.1932C18.3059 44.6927 23.0506 46.6611 27.9996 46.6667ZM13.9996 21H23.3329V16.3333H14.2096C14.758 13.0725 16.4442 10.1115 18.9688 7.97609C21.4934 5.84064 24.693 4.6689 27.9996 4.6689C31.3062 4.6689 34.5059 5.84064 37.0304 7.97609C39.555 10.1115 41.2412 13.0725 41.7896 16.3333H32.6663V21H41.9996V25.6667H32.6663V30.3333H41.7896C41.2412 33.5942 39.555 36.5551 37.0304 38.6906C34.5059 40.826 31.3062 41.9978 27.9996 41.9978C24.693 41.9978 21.4934 40.826 18.9688 38.6906C16.4442 36.5551 14.758 33.5942 14.2096 30.3333H23.3329V25.6667H13.9996V21Z" fill="#5362F6"/>
<path d="M51.3333 30.334C51.3271 35.9016 49.1126 41.2395 45.1757 45.1764C41.2388 49.1133 35.901 51.3278 30.3333 51.334H25.6666C20.0992 51.3272 14.7617 49.1125 10.8249 45.1757C6.8881 41.2389 4.67343 35.9014 4.66664 30.334H-3.05176e-05C0.00799725 37.1387 2.71473 43.6625 7.52643 48.4742C12.3381 53.2859 18.8619 55.9926 25.6666 56.0006H30.3333C37.1381 55.9926 43.6618 53.2859 48.4735 48.4742C53.2852 43.6625 55.9919 37.1387 56 30.334H51.3333Z" fill="#5362F6"/>
</g>
<defs>
<clipPath id="clip0_111_256">
<rect width="56" height="56" fill="white"/>
</clipPath>
</defs>
</svg>
