<svg width="522" height="344" viewBox="0 0 522 344" fill="none" xmlns="http://www.w3.org/2000/svg">
<circle cx="-14" cy="16" r="16" fill="#5362F6" fill-opacity="0.1"/>
<circle cx="38" cy="16" r="16" fill="#5362F6" fill-opacity="0.1"/>
<circle cx="90" cy="16" r="16" fill="#5362F6" fill-opacity="0.1"/>
<circle cx="142" cy="16" r="16" fill="#5362F6" fill-opacity="0.1"/>
<circle cx="194" cy="16" r="16" fill="#5362F6" fill-opacity="0.1"/>
<circle cx="246" cy="16" r="16" fill="#5362F6" fill-opacity="0.1"/>
<circle cx="298" cy="16" r="16" fill="#5362F6" fill-opacity="0.1"/>
<circle cx="350" cy="16" r="16" fill="#5362F6" fill-opacity="0.1"/>
<circle cx="402" cy="16" r="16" fill="#5362F6" fill-opacity="0.1"/>
<circle cx="454" cy="16" r="16" fill="#5362F6" fill-opacity="0.1"/>
<circle cx="506" cy="16" r="16" fill="#5362F6" fill-opacity="0.1"/>
<circle cx="-14" cy="68" r="16" fill="#5362F6" fill-opacity="0.1"/>
<circle cx="38" cy="68" r="16" fill="#5362F6" fill-opacity="0.1"/>
<circle cx="90" cy="68" r="16" fill="#5362F6" fill-opacity="0.1"/>
<circle cx="142" cy="68" r="16" fill="#5362F6" fill-opacity="0.1"/>
<circle cx="194" cy="68" r="16" fill="#5362F6" fill-opacity="0.1"/>
<circle cx="246" cy="68" r="16" fill="#5362F6" fill-opacity="0.1"/>
<circle cx="298" cy="68" r="16" fill="#5362F6" fill-opacity="0.1"/>
<circle cx="350" cy="68" r="16" fill="#5362F6" fill-opacity="0.1"/>
<circle cx="402" cy="68" r="16" fill="#5362F6" fill-opacity="0.1"/>
<circle cx="454" cy="68" r="16" fill="#5362F6" fill-opacity="0.1"/>
<circle cx="506" cy="68" r="16" fill="#5362F6" fill-opacity="0.1"/>
<circle cx="-14" cy="120" r="16" fill="#5362F6" fill-opacity="0.1"/>
<circle cx="38" cy="120" r="16" fill="#5362F6" fill-opacity="0.1"/>
<circle cx="90" cy="120" r="16" fill="#5362F6" fill-opacity="0.1"/>
<circle cx="142" cy="120" r="16" fill="#5362F6" fill-opacity="0.1"/>
<circle cx="194" cy="120" r="16" fill="#5362F6" fill-opacity="0.1"/>
<circle cx="246" cy="120" r="16" fill="#5362F6" fill-opacity="0.1"/>
<circle cx="298" cy="120" r="16" fill="#5362F6" fill-opacity="0.1"/>
<circle cx="350" cy="120" r="16" fill="#5362F6" fill-opacity="0.1"/>
<circle cx="402" cy="120" r="16" fill="#5362F6" fill-opacity="0.1"/>
<circle cx="454" cy="120" r="16" fill="#5362F6" fill-opacity="0.1"/>
<circle cx="506" cy="120" r="16" fill="#5362F6" fill-opacity="0.1"/>
<circle cx="-14" cy="172" r="16" fill="#5362F6" fill-opacity="0.1"/>
<circle cx="38" cy="172" r="16" fill="#5362F6" fill-opacity="0.1"/>
<circle cx="90" cy="172" r="16" fill="#5362F6" fill-opacity="0.1"/>
<circle cx="142" cy="172" r="16" fill="#5362F6" fill-opacity="0.1"/>
<circle cx="194" cy="172" r="16" fill="#5362F6" fill-opacity="0.1"/>
<circle cx="246" cy="172" r="16" fill="#5362F6" fill-opacity="0.1"/>
<circle cx="298" cy="172" r="16" fill="#5362F6" fill-opacity="0.1"/>
<circle cx="350" cy="172" r="16" fill="#5362F6" fill-opacity="0.1"/>
<circle cx="402" cy="172" r="16" fill="#5362F6" fill-opacity="0.1"/>
<circle cx="454" cy="172" r="16" fill="#5362F6" fill-opacity="0.1"/>
<circle cx="506" cy="172" r="16" fill="#5362F6" fill-opacity="0.1"/>
<circle cx="-14" cy="224" r="16" fill="#5362F6" fill-opacity="0.1"/>
<circle cx="38" cy="224" r="16" fill="#5362F6" fill-opacity="0.1"/>
<circle cx="90" cy="224" r="16" fill="#5362F6" fill-opacity="0.1"/>
<circle cx="142" cy="224" r="16" fill="#5362F6" fill-opacity="0.1"/>
<circle cx="194" cy="224" r="16" fill="#5362F6" fill-opacity="0.1"/>
<circle cx="246" cy="224" r="16" fill="#5362F6" fill-opacity="0.1"/>
<circle cx="298" cy="224" r="16" fill="#5362F6" fill-opacity="0.1"/>
<circle cx="350" cy="224" r="16" fill="#5362F6" fill-opacity="0.1"/>
<circle cx="402" cy="224" r="16" fill="#5362F6" fill-opacity="0.1"/>
<circle cx="454" cy="224" r="16" fill="#5362F6" fill-opacity="0.1"/>
<circle cx="506" cy="224" r="16" fill="#5362F6" fill-opacity="0.1"/>
<circle cx="-14" cy="276" r="16" fill="#5362F6" fill-opacity="0.1"/>
<circle cx="38" cy="276" r="16" fill="#5362F6" fill-opacity="0.1"/>
<circle cx="90" cy="276" r="16" fill="#5362F6" fill-opacity="0.1"/>
<circle cx="142" cy="276" r="16" fill="#5362F6" fill-opacity="0.1"/>
<circle cx="194" cy="276" r="16" fill="#5362F6" fill-opacity="0.1"/>
<circle cx="246" cy="276" r="16" fill="#5362F6" fill-opacity="0.1"/>
<circle cx="298" cy="276" r="16" fill="#5362F6" fill-opacity="0.1"/>
<circle cx="350" cy="276" r="16" fill="#5362F6" fill-opacity="0.1"/>
<circle cx="402" cy="276" r="16" fill="#5362F6" fill-opacity="0.1"/>
<circle cx="454" cy="276" r="16" fill="#5362F6" fill-opacity="0.1"/>
<circle cx="506" cy="276" r="16" fill="#5362F6" fill-opacity="0.1"/>
<circle cx="-14" cy="328" r="16" fill="#5362F6" fill-opacity="0.1"/>
<circle cx="38" cy="328" r="16" fill="#5362F6" fill-opacity="0.1"/>
<circle cx="90" cy="328" r="16" fill="#5362F6" fill-opacity="0.1"/>
<circle cx="142" cy="328" r="16" fill="#5362F6" fill-opacity="0.1"/>
<circle cx="194" cy="328" r="16" fill="#5362F6" fill-opacity="0.1"/>
<circle cx="246" cy="328" r="16" fill="#5362F6" fill-opacity="0.1"/>
<circle cx="298" cy="328" r="16" fill="#5362F6" fill-opacity="0.1"/>
<circle cx="350" cy="328" r="16" fill="#5362F6" fill-opacity="0.1"/>
<circle cx="402" cy="328" r="16" fill="#5362F6" fill-opacity="0.1"/>
<circle cx="454" cy="328" r="16" fill="#5362F6" fill-opacity="0.1"/>
<circle cx="506" cy="328" r="16" fill="#5362F6" fill-opacity="0.1"/>
</svg>
