<svg width="552" height="344" viewBox="0 0 552 344" fill="none" xmlns="http://www.w3.org/2000/svg">
<path fill-rule="evenodd" clip-rule="evenodd" d="M32 16C32 24.8366 24.8366 32 16 32C7.16344 32 0 24.8366 0 16C0 7.16344 7.16344 0 16 0C24.8366 0 32 7.16344 32 16ZM84 16C84 24.8366 76.8366 32 68 32C59.1634 32 52 24.8366 52 16C52 7.16344 59.1634 0 68 0C76.8366 0 84 7.16344 84 16ZM120 32C128.837 32 136 24.8366 136 16C136 7.16344 128.837 0 120 0C111.163 0 104 7.16344 104 16C104 24.8366 111.163 32 120 32ZM188 16C188 24.8366 180.837 32 172 32C163.163 32 156 24.8366 156 16C156 7.16344 163.163 0 172 0C180.837 0 188 7.16344 188 16ZM224 32C232.837 32 240 24.8366 240 16C240 7.16344 232.837 0 224 0C215.163 0 208 7.16344 208 16C208 24.8366 215.163 32 224 32ZM292 16C292 24.8366 284.837 32 276 32C267.163 32 260 24.8366 260 16C260 7.16344 267.163 0 276 0C284.837 0 292 7.16344 292 16ZM328 32C336.837 32 344 24.8366 344 16C344 7.16344 336.837 0 328 0C319.163 0 312 7.16344 312 16C312 24.8366 319.163 32 328 32ZM396 16C396 24.8366 388.837 32 380 32C371.163 32 364 24.8366 364 16C364 7.16344 371.163 0 380 0C388.837 0 396 7.16344 396 16ZM432 32C440.837 32 448 24.8366 448 16C448 7.16344 440.837 0 432 0C423.163 0 416 7.16344 416 16C416 24.8366 423.163 32 432 32ZM500 16C500 24.8366 492.837 32 484 32C475.163 32 468 24.8366 468 16C468 7.16344 475.163 0 484 0C492.837 0 500 7.16344 500 16ZM536 32C544.837 32 552 24.8366 552 16C552 7.16344 544.837 0 536 0C527.163 0 520 7.16344 520 16C520 24.8366 527.163 32 536 32ZM32 68C32 76.8366 24.8366 84 16 84C7.16344 84 0 76.8366 0 68C0 59.1634 7.16344 52 16 52C24.8366 52 32 59.1634 32 68ZM68 84C76.8366 84 84 76.8366 84 68C84 59.1634 76.8366 52 68 52C59.1634 52 52 59.1634 52 68C52 76.8366 59.1634 84 68 84ZM136 68C136 76.8366 128.837 84 120 84C111.163 84 104 76.8366 104 68C104 59.1634 111.163 52 120 52C128.837 52 136 59.1634 136 68ZM172 84C180.837 84 188 76.8366 188 68C188 59.1634 180.837 52 172 52C163.163 52 156 59.1634 156 68C156 76.8366 163.163 84 172 84ZM240 68C240 76.8366 232.837 84 224 84C215.163 84 208 76.8366 208 68C208 59.1634 215.163 52 224 52C232.837 52 240 59.1634 240 68ZM276 84C284.837 84 292 76.8366 292 68C292 59.1634 284.837 52 276 52C267.163 52 260 59.1634 260 68C260 76.8366 267.163 84 276 84ZM344 68C344 76.8366 336.837 84 328 84C319.163 84 312 76.8366 312 68C312 59.1634 319.163 52 328 52C336.837 52 344 59.1634 344 68ZM380 84C388.837 84 396 76.8366 396 68C396 59.1634 388.837 52 380 52C371.163 52 364 59.1634 364 68C364 76.8366 371.163 84 380 84ZM448 68C448 76.8366 440.837 84 432 84C423.163 84 416 76.8366 416 68C416 59.1634 423.163 52 432 52C440.837 52 448 59.1634 448 68ZM484 84C492.837 84 500 76.8366 500 68C500 59.1634 492.837 52 484 52C475.163 52 468 59.1634 468 68C468 76.8366 475.163 84 484 84ZM552 68C552 76.8366 544.837 84 536 84C527.163 84 520 76.8366 520 68C520 59.1634 527.163 52 536 52C544.837 52 552 59.1634 552 68ZM16 136C24.8366 136 32 128.837 32 120C32 111.163 24.8366 104 16 104C7.16344 104 0 111.163 0 120C0 128.837 7.16344 136 16 136ZM84 120C84 128.837 76.8366 136 68 136C59.1634 136 52 128.837 52 120C52 111.163 59.1634 104 68 104C76.8366 104 84 111.163 84 120ZM120 136C128.837 136 136 128.837 136 120C136 111.163 128.837 104 120 104C111.163 104 104 111.163 104 120C104 128.837 111.163 136 120 136ZM188 120C188 128.837 180.837 136 172 136C163.163 136 156 128.837 156 120C156 111.163 163.163 104 172 104C180.837 104 188 111.163 188 120ZM224 136C232.837 136 240 128.837 240 120C240 111.163 232.837 104 224 104C215.163 104 208 111.163 208 120C208 128.837 215.163 136 224 136ZM292 120C292 128.837 284.837 136 276 136C267.163 136 260 128.837 260 120C260 111.163 267.163 104 276 104C284.837 104 292 111.163 292 120ZM328 136C336.837 136 344 128.837 344 120C344 111.163 336.837 104 328 104C319.163 104 312 111.163 312 120C312 128.837 319.163 136 328 136ZM396 120C396 128.837 388.837 136 380 136C371.163 136 364 128.837 364 120C364 111.163 371.163 104 380 104C388.837 104 396 111.163 396 120ZM432 136C440.837 136 448 128.837 448 120C448 111.163 440.837 104 432 104C423.163 104 416 111.163 416 120C416 128.837 423.163 136 432 136ZM500 120C500 128.837 492.837 136 484 136C475.163 136 468 128.837 468 120C468 111.163 475.163 104 484 104C492.837 104 500 111.163 500 120ZM536 136C544.837 136 552 128.837 552 120C552 111.163 544.837 104 536 104C527.163 104 520 111.163 520 120C520 128.837 527.163 136 536 136ZM32 172C32 180.837 24.8366 188 16 188C7.16344 188 0 180.837 0 172C0 163.163 7.16344 156 16 156C24.8366 156 32 163.163 32 172ZM68 188C76.8366 188 84 180.837 84 172C84 163.163 76.8366 156 68 156C59.1634 156 52 163.163 52 172C52 180.837 59.1634 188 68 188ZM136 172C136 180.837 128.837 188 120 188C111.163 188 104 180.837 104 172C104 163.163 111.163 156 120 156C128.837 156 136 163.163 136 172ZM172 188C180.837 188 188 180.837 188 172C188 163.163 180.837 156 172 156C163.163 156 156 163.163 156 172C156 180.837 163.163 188 172 188ZM240 172C240 180.837 232.837 188 224 188C215.163 188 208 180.837 208 172C208 163.163 215.163 156 224 156C232.837 156 240 163.163 240 172ZM276 188C284.837 188 292 180.837 292 172C292 163.163 284.837 156 276 156C267.163 156 260 163.163 260 172C260 180.837 267.163 188 276 188ZM344 172C344 180.837 336.837 188 328 188C319.163 188 312 180.837 312 172C312 163.163 319.163 156 328 156C336.837 156 344 163.163 344 172ZM380 188C388.837 188 396 180.837 396 172C396 163.163 388.837 156 380 156C371.163 156 364 163.163 364 172C364 180.837 371.163 188 380 188ZM448 172C448 180.837 440.837 188 432 188C423.163 188 416 180.837 416 172C416 163.163 423.163 156 432 156C440.837 156 448 163.163 448 172ZM484 188C492.837 188 500 180.837 500 172C500 163.163 492.837 156 484 156C475.163 156 468 163.163 468 172C468 180.837 475.163 188 484 188ZM552 172C552 180.837 544.837 188 536 188C527.163 188 520 180.837 520 172C520 163.163 527.163 156 536 156C544.837 156 552 163.163 552 172ZM16 240C24.8366 240 32 232.837 32 224C32 215.163 24.8366 208 16 208C7.16344 208 0 215.163 0 224C0 232.837 7.16344 240 16 240ZM84 224C84 232.837 76.8366 240 68 240C59.1634 240 52 232.837 52 224C52 215.163 59.1634 208 68 208C76.8366 208 84 215.163 84 224ZM120 240C128.837 240 136 232.837 136 224C136 215.163 128.837 208 120 208C111.163 208 104 215.163 104 224C104 232.837 111.163 240 120 240ZM188 224C188 232.837 180.837 240 172 240C163.163 240 156 232.837 156 224C156 215.163 163.163 208 172 208C180.837 208 188 215.163 188 224ZM224 240C232.837 240 240 232.837 240 224C240 215.163 232.837 208 224 208C215.163 208 208 215.163 208 224C208 232.837 215.163 240 224 240ZM292 224C292 232.837 284.837 240 276 240C267.163 240 260 232.837 260 224C260 215.163 267.163 208 276 208C284.837 208 292 215.163 292 224ZM328 240C336.837 240 344 232.837 344 224C344 215.163 336.837 208 328 208C319.163 208 312 215.163 312 224C312 232.837 319.163 240 328 240ZM396 224C396 232.837 388.837 240 380 240C371.163 240 364 232.837 364 224C364 215.163 371.163 208 380 208C388.837 208 396 215.163 396 224ZM432 240C440.837 240 448 232.837 448 224C448 215.163 440.837 208 432 208C423.163 208 416 215.163 416 224C416 232.837 423.163 240 432 240ZM500 224C500 232.837 492.837 240 484 240C475.163 240 468 232.837 468 224C468 215.163 475.163 208 484 208C492.837 208 500 215.163 500 224ZM536 240C544.837 240 552 232.837 552 224C552 215.163 544.837 208 536 208C527.163 208 520 215.163 520 224C520 232.837 527.163 240 536 240ZM32 276C32 284.837 24.8366 292 16 292C7.16344 292 0 284.837 0 276C0 267.163 7.16344 260 16 260C24.8366 260 32 267.163 32 276ZM68 292C76.8366 292 84 284.837 84 276C84 267.163 76.8366 260 68 260C59.1634 260 52 267.163 52 276C52 284.837 59.1634 292 68 292ZM136 276C136 284.837 128.837 292 120 292C111.163 292 104 284.837 104 276C104 267.163 111.163 260 120 260C128.837 260 136 267.163 136 276ZM172 292C180.837 292 188 284.837 188 276C188 267.163 180.837 260 172 260C163.163 260 156 267.163 156 276C156 284.837 163.163 292 172 292ZM240 276C240 284.837 232.837 292 224 292C215.163 292 208 284.837 208 276C208 267.163 215.163 260 224 260C232.837 260 240 267.163 240 276ZM276 292C284.837 292 292 284.837 292 276C292 267.163 284.837 260 276 260C267.163 260 260 267.163 260 276C260 284.837 267.163 292 276 292ZM344 276C344 284.837 336.837 292 328 292C319.163 292 312 284.837 312 276C312 267.163 319.163 260 328 260C336.837 260 344 267.163 344 276ZM380 292C388.837 292 396 284.837 396 276C396 267.163 388.837 260 380 260C371.163 260 364 267.163 364 276C364 284.837 371.163 292 380 292ZM448 276C448 284.837 440.837 292 432 292C423.163 292 416 284.837 416 276C416 267.163 423.163 260 432 260C440.837 260 448 267.163 448 276ZM484 292C492.837 292 500 284.837 500 276C500 267.163 492.837 260 484 260C475.163 260 468 267.163 468 276C468 284.837 475.163 292 484 292ZM552 276C552 284.837 544.837 292 536 292C527.163 292 520 284.837 520 276C520 267.163 527.163 260 536 260C544.837 260 552 267.163 552 276ZM16 344C24.8366 344 32 336.837 32 328C32 319.163 24.8366 312 16 312C7.16344 312 0 319.163 0 328C0 336.837 7.16344 344 16 344ZM84 328C84 336.837 76.8366 344 68 344C59.1634 344 52 336.837 52 328C52 319.163 59.1634 312 68 312C76.8366 312 84 319.163 84 328ZM120 344C128.837 344 136 336.837 136 328C136 319.163 128.837 312 120 312C111.163 312 104 319.163 104 328C104 336.837 111.163 344 120 344ZM188 328C188 336.837 180.837 344 172 344C163.163 344 156 336.837 156 328C156 319.163 163.163 312 172 312C180.837 312 188 319.163 188 328ZM224 344C232.837 344 240 336.837 240 328C240 319.163 232.837 312 224 312C215.163 312 208 319.163 208 328C208 336.837 215.163 344 224 344ZM292 328C292 336.837 284.837 344 276 344C267.163 344 260 336.837 260 328C260 319.163 267.163 312 276 312C284.837 312 292 319.163 292 328ZM328 344C336.837 344 344 336.837 344 328C344 319.163 336.837 312 328 312C319.163 312 312 319.163 312 328C312 336.837 319.163 344 328 344ZM396 328C396 336.837 388.837 344 380 344C371.163 344 364 336.837 364 328C364 319.163 371.163 312 380 312C388.837 312 396 319.163 396 328ZM432 344C440.837 344 448 336.837 448 328C448 319.163 440.837 312 432 312C423.163 312 416 319.163 416 328C416 336.837 423.163 344 432 344ZM500 328C500 336.837 492.837 344 484 344C475.163 344 468 336.837 468 328C468 319.163 475.163 312 484 312C492.837 312 500 319.163 500 328ZM536 344C544.837 344 552 336.837 552 328C552 319.163 544.837 312 536 312C527.163 312 520 319.163 520 328C520 336.837 527.163 344 536 344Z" fill="url(#paint0_linear_68_1243)" fill-opacity="0.1"/>
<defs>
<linearGradient id="paint0_linear_68_1243" x1="8.22544e-06" y1="344" x2="552" y2="-1.61626e-06" gradientUnits="userSpaceOnUse">
<stop stop-color="#5362F6"/>
<stop offset="1" stop-color="#5362F6" stop-opacity="0"/>
</linearGradient>
</defs>
</svg>
