<svg width="118" height="106" viewBox="0 0 118 106" fill="none" xmlns="http://www.w3.org/2000/svg">
<path d="M51.1039 2.56267L51.1039 2.56272L61.0614 12.5202L61.2079 12.6667H61.415H105.667C111.834 12.6667 116.833 17.6662 116.833 23.8333V93.8333C116.833 100.001 111.834 105 105.667 105H12.3333C6.16614 105 1.16666 100.001 1.16666 93.8333V12.1667C1.16666 5.99949 6.16614 1 12.3333 1H47.3333C48.7475 1 50.1039 1.56235 51.1039 2.56267ZM64.8333 82.6667H65.3333V82.1667V65.1667H82.3333H82.8333V64.6667V53V52.5H82.3333H65.3333V35.5V35H64.8333H53.1667H52.6667V35.5V52.5H35.6667H35.1667V53V64.6667V65.1667H35.6667H52.6667V82.1667V82.6667H53.1667H64.8333ZM64.8333 53.5H81.8333V64.1667H64.8333H64.3333V64.6667V81.6667H53.6667V64.6667V64.1667H53.1667H36.1667V53.5H53.1667H53.6667V53V36H64.3333V53V53.5H64.8333Z" fill="white"/>
<path d="M51.1039 2.56267L51.1039 2.56272L61.0614 12.5202L61.2079 12.6667H61.415H105.667C111.834 12.6667 116.833 17.6662 116.833 23.8333V93.8333C116.833 100.001 111.834 105 105.667 105H12.3333C6.16614 105 1.16666 100.001 1.16666 93.8333V12.1667C1.16666 5.99949 6.16614 1 12.3333 1H47.3333C48.7475 1 50.1039 1.56235 51.1039 2.56267ZM64.8333 82.6667H65.3333V82.1667V65.1667H82.3333H82.8333V64.6667V53V52.5H82.3333H65.3333V35.5V35H64.8333H53.1667H52.6667V35.5V52.5H35.6667H35.1667V53V64.6667V65.1667H35.6667H52.6667V82.1667V82.6667H53.1667H64.8333ZM64.8333 53.5H81.8333V64.1667H64.8333H64.3333V64.6667V81.6667H53.6667V64.6667V64.1667H53.1667H36.1667V53.5H53.1667H53.6667V53V36H64.3333V53V53.5H64.8333Z" fill="url(#paint0_linear_40_616)"/>
<path d="M51.1039 2.56267L51.1039 2.56272L61.0614 12.5202L61.2079 12.6667H61.415H105.667C111.834 12.6667 116.833 17.6662 116.833 23.8333V93.8333C116.833 100.001 111.834 105 105.667 105H12.3333C6.16614 105 1.16666 100.001 1.16666 93.8333V12.1667C1.16666 5.99949 6.16614 1 12.3333 1H47.3333C48.7475 1 50.1039 1.56235 51.1039 2.56267ZM64.8333 82.6667H65.3333V82.1667V65.1667H82.3333H82.8333V64.6667V53V52.5H82.3333H65.3333V35.5V35H64.8333H53.1667H52.6667V35.5V52.5H35.6667H35.1667V53V64.6667V65.1667H35.6667H52.6667V82.1667V82.6667H53.1667H64.8333ZM64.8333 53.5H81.8333V64.1667H64.8333H64.3333V64.6667V81.6667H53.6667V64.6667V64.1667H53.1667H36.1667V53.5H53.1667H53.6667V53V36H64.3333V53V53.5H64.8333Z" stroke="#A0A5FA"/>
<path d="M53.1667 82.1667H64.8333V64.6667H82.3333V53H64.8333V35.5H53.1667V53H35.6667V64.6667H53.1667V82.1667Z" fill="white"/>
<defs>
<linearGradient id="paint0_linear_40_616" x1="117.8" y1="67.7" x2="0.199977" y2="67.7" gradientUnits="userSpaceOnUse">
<stop stop-color="#5362F6"/>
<stop offset="1" stop-color="#C7C9FC"/>
</linearGradient>
</defs>
</svg>
